<?xml version="1.0" standalone="no"?>
<!DOCTYPE svg PUBLIC "-//W3C//DTD SVG 1.1//EN" "http://www.w3.org/Graphics/SVG/1.1/DTD/svg11.dtd">
<svg xmlns="http://www.w3.org/2000/svg">
<metadata>Generated by Fontastic.me</metadata>
<defs>
<font id="wire-icons" horiz-adv-x="512">
<font-face font-family="wire-icons" units-per-em="512" ascent="480" descent="-32"/>
<missing-glyph horiz-adv-x="512" />

<glyph unicode="&#57344;" d="M0 91c-1 6 0 12 2 17 3 6 7 11 12 14 5 4 11 6 18 6l32 0 0 64c0 26 9 49 28 68 19 19 42 28 68 28l32 0c9 0 16 3 23 9 6 7 9 14 9 23l0 160c0 8 2 14 7 20 4 5 9 9 16 10 6 1 12 1 18 0 7-1 12-5 16-10 5-6 7-12 7-20l0-160c0-9 3-16 9-23 7-6 14-9 23-9l32 0c27 0 49-9 68-28 19-19 28-42 28-68l0-64 32 0c7 0 13-2 19-6 5-4 9-9 11-14 2-6 2-11 1-18-1-6-4-12-8-17l-64-64c-7-6-15-9-23-9-9 0-16 3-22 9l-64 64c-5 5-8 11-9 17-1 7-1 13 2 18 2 6 6 11 11 14 5 4 11 6 18 6l32 0 0 64c0 9-3 16-9 23-7 6-14 9-23 9l-32 0c-24 0-46 8-64 25-18-17-40-25-64-25l-32 0c-9 0-16-3-23-9-6-7-9-14-9-23l0-64 32 0c7 0 13-2 19-6 5-4 9-9 11-14 2-6 2-11 1-18-1-6-4-12-8-17l-64-64c-7-6-15-9-23-9-9 0-17 3-23 9l-64 64c-5 5-8 11-9 18z"/>
<glyph unicode="&#57345;" d="M0 192c0-27 9-49 28-68 19-19 42-28 68-28l192 0 64-96 64 96c27 0 49 9 68 28 19 19 28 41 28 68l0 224c0 26-9 49-28 68-19 19-41 28-68 28l-320 0c-26 0-49-9-68-28-19-19-28-42-28-68z m64 0l0 224c0 9 3 16 9 23 7 6 14 9 23 9l320 0c9 0 16-3 23-9 6-7 9-14 9-23l0-224c0-9-3-16-9-23-7-6-14-9-23-9l-21 0-43-64-43 64-213 0c-9 0-16 3-23 9-6 7-9 14-9 23z"/>
<glyph unicode="&#57346;" d="M0 192c0-27 9-49 28-68 19-19 42-28 68-28l64-96 64 96 192 0c27 0 49 9 68 28 19 19 28 41 28 68l0 224c0 26-9 49-28 68-19 19-41 28-68 28l-320 0c-26 0-49-9-68-28-19-19-28-42-28-68z m64 0l0 224c0 9 3 16 9 23 7 6 14 9 23 9l320 0c9 0 16-3 23-9 6-7 9-14 9-23l0-224c0-9-3-16-9-23-7-6-14-9-23-9l-213 0-43-64-43 64-21 0c-9 0-16 3-23 9-6 7-9 14-9 23z m64 32l128 0 0 32-128 0z m0 64l256 0 0 32-256 0z m0 64l256 0 0 32-256 0z"/>
<glyph unicode="&#57347;" d="M0 192c0-27 9-49 28-68 19-19 42-28 68-28l96 0 64-96 64 96 96 0c27 0 49 9 68 28 19 19 28 41 28 68l0 224c0 26-9 49-28 68-19 19-41 28-68 28l-320 0c-26 0-49-9-68-28-19-19-28-42-28-68z m64 0l0 224c0 9 3 16 9 23 7 6 14 9 23 9l320 0c9 0 16-3 23-9 6-7 9-14 9-23l0-224c0-9-3-16-9-23-7-6-14-9-23-9l-117 0-43-64-43 64-117 0c-9 0-16 3-23 9-6 7-9 14-9 23z m64 32l128 0 0 32-128 0z m0 64l256 0 0 32-256 0z m0 64l256 0 0 32-256 0z"/>
<glyph unicode="&#57348;" d="M0 192c0-27 9-49 28-68 19-19 42-28 68-28l192 0 64-96 64 96c27 0 49 9 68 28 19 19 28 41 28 68l0 224c0 26-9 49-28 68-19 19-41 28-68 28l-320 0c-26 0-49-9-68-28-19-19-28-42-28-68z m64 0l0 224c0 9 3 16 9 23 7 6 14 9 23 9l320 0c9 0 16-3 23-9 6-7 9-14 9-23l0-224c0-9-3-16-9-23-7-6-14-9-23-9l-21 0-43-64-43 64-213 0c-9 0-16 3-23 9-6 7-9 14-9 23z m64 32l128 0 0 32-128 0z m0 64l256 0 0 32-256 0z m0 64l256 0 0 32-256 0z"/>
<glyph unicode="&#57349;" d="M0 192l0 224c0 26 9 49 28 68 19 19 42 28 68 28l320 0c27 0 49-9 68-28 19-19 28-42 28-68l0-224c0-27-9-49-28-68-19-19-41-28-68-28l-192 0-64-96-64 96c-26 0-49 9-68 28-19 19-28 41-28 68z m96 0l160 0 0 32-160 0z m0 64l320 0 0 32-320 0z m0 64l320 0 0 32-320 0z m0 64l320 0 0 32-320 0z"/>
<glyph unicode="&#57350;" d="M0 192c0-27 9-49 28-68 19-19 42-28 68-28l96 0 64-96 64 96 96 0c27 0 49 9 68 28 19 19 28 41 28 68l0 224c0 26-9 49-28 68-19 19-41 28-68 28l-320 0c-26 0-49-9-68-28-19-19-28-42-28-68z m96 0l0 32 160 0 0-32z m0 64l0 32 320 0 0-32z m0 64l0 32 320 0 0-32z m0 64l0 32 320 0 0-32z"/>
<glyph unicode="&#57351;" d="M0 192c0-27 9-49 28-68 19-19 42-28 68-28l192 0 64-96 64 96c27 0 49 9 68 28 19 19 28 41 28 68l0 224c0 26-9 49-28 68-19 19-41 28-68 28l-320 0c-26 0-49-9-68-28-19-19-28-42-28-68z m96 0l0 32 160 0 0-32z m0 64l0 32 320 0 0-32z m0 64l0 32 320 0 0-32z m0 64l0 32 320 0 0-32z"/>
<glyph unicode="&#57352;" d="M0 192c0-27 9-49 28-68 19-19 42-28 68-28l64-96 64 96 96 0c27 0 49 9 68 28 19 19 28 41 28 68l0 128c0 26-9 49-28 68-19 19-41 28-68 28l-224 0c-26 0-49-9-68-28-19-19-28-42-28-68z m64 0l0 128c0 9 3 16 9 23 7 6 14 9 23 9l224 0c9 0 16-3 23-9 6-7 9-14 9-23l0-128c0-9-3-16-9-23-7-6-14-9-23-9l-117 0-43-64-43 64-21 0c-9 0-16 3-23 9-6 7-9 14-9 23z m38 256l250 0c27 0 49-9 68-28 19-19 28-42 28-68l0-186c19 7 34 18 46 34 12 17 18 35 18 56l0 160c0 26-9 49-28 68-19 19-41 28-68 28l-224 0c-21 0-39-6-55-18-17-12-28-27-35-46z"/>
<glyph unicode="&#57353;" d="M0 256l0 160c0 26 9 49 28 68 19 19 42 28 68 28l224 0c21 0 39-6 56-18 16-12 28-27 34-46l-250 0c-26 0-49-9-68-28-19-19-28-42-28-68l0-186c-19 7-34 18-46 34-12 17-18 35-18 56z m96-64l0 128c0 26 9 49 28 68 19 19 42 28 68 28l224 0c27 0 49-9 68-28 19-19 28-42 28-68l0-128c0-27-9-49-28-68-19-19-41-28-68-28l-64-96-64 96-96 0c-26 0-49 9-68 28-19 19-28 41-28 68z m64 0c0-9 3-16 9-23 7-6 14-9 23-9l117 0 43-64 43 64 21 0c9 0 16 3 23 9 6 7 9 14 9 23l0 128c0 9-3 16-9 23-7 6-14 9-23 9l-224 0c-9 0-16-3-23-9-6-7-9-14-9-23z"/>
<glyph unicode="&#57354;" d="M0 96c0-27 9-49 28-68 19-19 42-28 68-28l320 0c27 0 49 9 68 28 19 19 28 41 28 68l0 320c0 26-9 49-28 68-19 19-41 28-68 28l-320 0c-26 0-49-9-68-28-19-19-28-42-28-68z m64 0l0 224 384 0 0-224c0-9-3-16-9-23-7-6-14-9-23-9l-320 0c-9 0-16 3-23 9-6 7-9 14-9 23z m0 256l0 64c0 9 3 16 9 23 7 6 14 9 23 9l320 0c9 0 16-3 23-9 6-7 9-14 9-23l0-64z m32 32l32 0 0 32-32 0z m64 0l32 0 0 32-32 0z m64 0l192 0 0 32-192 0z"/>
<glyph unicode="&#57355;" d="M0 96c0-27 9-49 28-68 19-19 42-28 68-28l320 0c27 0 49 9 68 28 19 19 28 41 28 68l0 320c0 26-9 49-28 68-19 19-41 28-68 28l-320 0c-26 0-49-9-68-28-19-19-28-42-28-68z m64 0l0 224 384 0 0-224c0-9-3-16-9-23-7-6-14-9-23-9l-320 0c-9 0-16 3-23 9-6 7-9 14-9 23z m0 256l0 64c0 9 3 16 9 23 7 6 14 9 23 9l320 0c9 0 16-3 23-9 6-7 9-14 9-23l0-64z m32 32l32 0 0 32-32 0z m64-224l64 0 0-64 64 0 0 64 64 0 0 64-64 0 0 64-64 0 0-64-64 0z m0 224l32 0 0 32-32 0z m64 0l192 0 0 32-192 0z"/>
<glyph unicode="&#57356;" d="M0 96c0-27 9-49 28-68 19-19 42-28 68-28l320 0c27 0 49 9 68 28 19 19 28 41 28 68l0 320c0 26-9 49-28 68-19 19-41 28-68 28l-320 0c-26 0-49-9-68-28-19-19-28-42-28-68z m64 0l0 224 384 0 0-224c0-9-3-16-9-23-7-6-14-9-23-9l-320 0c-9 0-16 3-23 9-6 7-9 14-9 23z m0 256l0 64c0 9 3 16 9 23 7 6 14 9 23 9l320 0c9 0 16-3 23-9 6-7 9-14 9-23l0-64z m32 32l32 0 0 32-32 0z m64-224l192 0 0 64-192 0z m0 224l32 0 0 32-32 0z m64 0l192 0 0 32-192 0z"/>
<glyph unicode="&#57357;" d="M0 96l0 320c0 26 9 49 28 68 19 19 42 28 68 28l320 0c27 0 49-9 68-28 19-19 28-42 28-68l0-320c0-27-9-49-28-68-19-19-41-28-68-28l-320 0c-26 0-49 9-68 28-19 19-28 41-28 68z m64 0c0-9 3-16 9-23 7-6 14-9 23-9l320 0c9 0 16 3 23 9 6 7 9 14 9 23l0 224-384 0z m0 256l384 0 0 64c0 9-3 16-9 23-7 6-14 9-23 9l-320 0c-9 0-16-3-23-9-6-7-9-14-9-23z m32 32l0 32 32 0 0-32z m64 0l0 32 32 0 0-32z m6-237l45 45-45 45 45 45 45-45 45 45 46-45-46-45 46-45-46-46-45 46-45-46z m58 237l0 32 192 0 0-32z"/>
<glyph unicode="&#57358;" d="M0 96c0-27 9-49 28-68 19-19 42-28 68-28l64 0 0 64-64 0c-9 0-16 3-23 9-6 7-9 14-9 23l0 224 384 0 0-224c0-9-3-16-9-23-7-6-14-9-23-9l-64 0 0-64 64 0c27 0 49 9 68 28 19 19 28 41 28 68l0 320c0 26-9 49-28 68-19 19-41 28-68 28l-320 0c-26 0-49-9-68-28-19-19-28-42-28-68z m64 256l0 64c0 9 3 16 9 23 7 6 14 9 23 9l320 0c9 0 16-3 23-9 6-7 9-14 9-23l0-64z m32 32l32 0 0 32-32 0z m64-256l64 0 0-128 64 0 0 128 64 0-96 128z m0 256l32 0 0 32-32 0z m64 0l192 0 0 32-192 0z"/>
<glyph unicode="&#57359;" d="M0 96c0-27 9-49 28-68 19-19 42-28 68-28l80 0-40 64-40 0c-9 0-16 3-23 9-6 7-9 14-9 23l0 224 384 0 0-224c0-9-3-16-9-23-7-6-14-9-23-9l-40 0-40-64 80 0c27 0 49 9 68 28 19 19 28 41 28 68l0 320c0 26-9 49-28 68-19 19-41 28-68 28l-320 0c-26 0-49-9-68-28-19-19-28-42-28-68z m64 256l0 64c0 9 3 16 9 23 7 6 14 9 23 9l320 0c9 0 16-3 23-9 6-7 9-14 9-23l0-64z m32 32l32 0 0 32-32 0z m64-256l96-128 96 128-64 0 0 128-64 0 0-128z m0 256l32 0 0 32-32 0z m64 0l192 0 0 32-192 0z"/>
<glyph unicode="&#57360;" d="M0 96c0-27 9-49 28-68 19-19 42-28 68-28l320 0c27 0 49 9 68 28 19 19 28 41 28 68l0 320c0 26-9 49-28 68-19 19-41 28-68 28l-320 0c-26 0-49-9-68-28-19-19-28-42-28-68z m64 0l0 224 384 0 0-224c0-9-3-16-9-23-7-6-14-9-23-9l-320 0c-9 0-16 3-23 9-6 7-9 14-9 23z m0 256l0 64c0 9 3 16 9 23 7 6 14 9 23 9l320 0c9 0 16-3 23-9 6-7 9-14 9-23l0-64z m32-160l32 0 0 32-32 0z m0 64l32 0 0 32-32 0z m0 128l32 0 0 32-32 0z m32-160l32 0 0 32-32 0z m32-64l64 0 0 32-64 0z m0 224l32 0 0 32-32 0z m64 0l192 0 0 32-192 0z"/>
<glyph unicode="&#57361;" d="M0 96c0-27 9-49 28-68 19-19 42-28 68-28l224 0c27 0 49 9 68 28 19 19 28 41 28 68l0 224c0 26-9 49-28 68-19 19-41 28-68 28l-224 0c-26 0-49-9-68-28-19-19-28-42-28-68z m64 0l0 128 288 0 0-128c0-9-3-16-9-23-7-6-14-9-23-9l-224 0c-9 0-16 3-23 9-6 7-9 14-9 23z m0 160l0 64c0 9 3 16 9 23 7 6 14 9 23 9l224 0c9 0 16-3 23-9 6-7 9-14 9-23l0-64z m32 32l32 0 0 32-32 0z m6 160l250 0c27 0 49-9 68-28 19-19 28-42 28-68l0-250c19 6 34 18 46 34 12 17 18 35 18 56l0 224c0 26-9 49-28 68-19 19-41 28-68 28l-224 0c-20 0-39-6-55-18-17-12-28-27-35-46z m58-160l32 0 0 32-32 0z m64 0l96 0 0 32-96 0z"/>
<glyph unicode="&#57362;" d="M0 96c0-27 9-49 28-68 19-19 42-28 68-28l320 0c27 0 49 9 68 28 19 19 28 41 28 68l0 320c0 26-9 49-28 68-19 19-41 28-68 28l-320 0c-26 0-49-9-68-28-19-19-28-42-28-68z m64 0l0 288 384 0 0-288c0-9-3-16-9-23-7-6-14-9-23-9l-320 0c-9 0-16 3-23 9-6 7-9 14-9 23z m0 352c0 9 3 16 9 23 7 6 14 9 23 9 9 0 16-3 23-9 6-7 9-14 9-23 0-9-3-16-9-23-7-6-14-9-23-9-9 0-16 3-23 9-6 7-9 14-9 23z"/>
<glyph unicode="&#57363;" d="M0 96c0-27 9-49 28-68 19-19 42-28 68-28l320 0c27 0 49 9 68 28 19 19 28 41 28 68l0 320c0 26-9 49-28 68-19 19-41 28-68 28l-320 0c-26 0-49-9-68-28-19-19-28-42-28-68z m64 0l0 288 384 0 0-288c0-9-3-16-9-23-7-6-14-9-23-9l-320 0c-9 0-16 3-23 9-6 7-9 14-9 23z m0 352c0 9 3 16 9 23 7 6 14 9 23 9 9 0 16-3 23-9 6-7 9-14 9-23 0-9-3-16-9-23-7-6-14-9-23-9-9 0-16 3-23 9-6 7-9 14-9 23z m96-256l64 0 0-64 64 0 0 64 64 0 0 64-64 0 0 64-64 0 0-64-64 0z"/>
<glyph unicode="&#57364;" d="M0 96c0-27 9-49 28-68 19-19 42-28 68-28l320 0c27 0 49 9 68 28 19 19 28 41 28 68l0 320c0 26-9 49-28 68-19 19-41 28-68 28l-320 0c-26 0-49-9-68-28-19-19-28-42-28-68z m64 0l0 288 384 0 0-288c0-9-3-16-9-23-7-6-14-9-23-9l-320 0c-9 0-16 3-23 9-6 7-9 14-9 23z m0 352c0 9 3 16 9 23 7 6 14 9 23 9 9 0 16-3 23-9 6-7 9-14 9-23 0-9-3-16-9-23-7-6-14-9-23-9-9 0-16 3-23 9-6 7-9 14-9 23z m96-256l0 64 192 0 0-64z"/>
<glyph unicode="&#57365;" d="M0 96c0-27 9-49 28-68 19-19 42-28 68-28l320 0c27 0 49 9 68 28 19 19 28 41 28 68l0 320c0 26-9 49-28 68-19 19-41 28-68 28l-320 0c-26 0-49-9-68-28-19-19-28-42-28-68z m64 0l0 288 384 0 0-288c0-9-3-16-9-23-7-6-14-9-23-9l-320 0c-9 0-16 3-23 9-6 7-9 14-9 23z m0 352c0 9 3 16 9 23 7 6 14 9 23 9 9 0 16-3 23-9 6-7 9-14 9-23 0-9-3-16-9-23-7-6-14-9-23-9-9 0-16 3-23 9-6 7-9 14-9 23z m102-269l45-46 45 46 45-46 46 46-46 45 46 45-46 45-45-45-45 45-45-45 45-45z"/>
<glyph unicode="&#57366;" d="M0 96c0-27 9-49 28-68 19-19 42-28 68-28l64 0 0 64-64 0c-9 0-16 3-23 9-6 7-9 14-9 23l0 288 384 0 0-288c0-9-3-16-9-23-7-6-14-9-23-9l-64 0 0-64 64 0c27 0 49 9 68 28 19 19 28 41 28 68l0 320c0 26-9 49-28 68-19 19-41 28-68 28l-320 0c-26 0-49-9-68-28-19-19-28-42-28-68z m64 352c0 9 3 16 9 23 7 6 14 9 23 9 9 0 16-3 23-9 6-7 9-14 9-23 0-9-3-16-9-23-7-6-14-9-23-9-9 0-16 3-23 9-6 7-9 14-9 23z m96-320l64 0 0-128 64 0 0 128 64 0-96 128z"/>
<glyph unicode="&#57367;" d="M0 96l0 320c0 26 9 49 28 68 19 19 42 28 68 28l320 0c27 0 49-9 68-28 19-19 28-42 28-68l0-320c0-27-9-49-28-68-19-19-41-28-68-28l-80 0 40 64 40 0c9 0 16 3 23 9 6 7 9 14 9 23l0 288-384 0 0-288c0-9 3-16 9-23 7-6 14-9 23-9l40 0 40-64-80 0c-26 0-49 9-68 28-19 19-28 41-28 68z m64 352c0-9 3-16 9-23 7-6 14-9 23-9 9 0 16 3 23 9 6 7 9 14 9 23 0 9-3 16-9 23-7 6-14 9-23 9-9 0-16-3-23-9-6-7-9-14-9-23z m96-320l64 0 0 128 64 0 0-128 64 0-96-128z"/>
<glyph unicode="&#57368;" d="M0 96c0-27 9-49 28-68 19-19 42-28 68-28l320 0c27 0 49 9 68 28 19 19 28 41 28 68l0 320c0 26-9 49-28 68-19 19-41 28-68 28l-320 0c-26 0-49-9-68-28-19-19-28-42-28-68z m64 0l0 288 384 0 0-288c0-9-3-16-9-23-7-6-14-9-23-9l-320 0c-9 0-16 3-23 9-6 7-9 14-9 23z m0 352c0 9 3 16 9 23 7 6 14 9 23 9 9 0 16-3 23-9 6-7 9-14 9-23 0-9-3-16-9-23-7-6-14-9-23-9-9 0-16 3-23 9-6 7-9 14-9 23z m128-224l32 0 0 32-32 0z m0 64l32 0 0 32-32 0z m32-32l32 0 0 32-32 0z m32-64l64 0 0 32-64 0z"/>
<glyph unicode="&#57369;" d="M0 96c0-27 9-49 28-68 19-19 42-28 68-28l224 0c27 0 49 9 68 28 19 19 28 41 28 68l0 224c0 26-9 49-28 68-19 19-41 28-68 28l-224 0c-26 0-49-9-68-28-19-19-28-42-28-68z m64 0l0 192 288 0 0-192c0-9-3-16-9-23-7-6-14-9-23-9l-224 0c-9 0-16 3-23 9-6 7-9 14-9 23z m0 256c0 9 3 16 9 23 7 6 14 9 23 9 9 0 16-3 23-9 6-7 9-14 9-23 0-9-3-16-9-23-7-6-14-9-23-9-9 0-16 3-23 9-6 7-9 14-9 23z m38 96l250 0c27 0 49-9 68-28 19-19 28-42 28-68l0-250c19 6 34 18 46 34 12 17 18 35 18 56l0 224c0 26-9 49-28 68-19 19-41 28-68 28l-224 0c-21 0-39-6-55-18-17-12-28-27-35-46z"/>
<glyph unicode="&#57370;" d="M0 96c0-27 9-49 28-68 19-19 42-28 68-28l224 0c27 0 49 9 68 28 19 19 28 41 28 68l0 224c0 26-9 49-28 68-19 19-41 28-68 28l-224 0c-26 0-49-9-68-28-19-19-28-42-28-68z m64 0l0 224c0 9 3 16 9 23 7 6 14 9 23 9l224 0c9 0 16-3 23-9 6-7 9-14 9-23l0-224c0-9-3-16-9-23-7-6-14-9-23-9l-224 0c-9 0-16 3-23 9-6 7-9 14-9 23z m38 352l250 0c27 0 49-9 68-28 19-19 28-42 28-68l0-250c19 6 34 18 46 34 12 17 18 35 18 56l0 224c0 26-9 49-28 68-19 19-41 28-68 28l-224 0c-21 0-39-6-55-18-17-12-28-27-35-46z"/>
<glyph unicode="&#57371;" d="M0 96c0-27 9-49 28-68 19-19 42-28 68-28l320 0c27 0 49 9 68 28 19 19 28 41 28 68l0 320c0 26-9 49-28 68-19 19-41 28-68 28l-320 0c-26 0-49-9-68-28-19-19-28-42-28-68z m64 0l0 320c0 9 3 16 9 23 7 6 14 9 23 9l320 0c9 0 16-3 23-9 6-7 9-14 9-23l0-320c0-9-3-16-9-23-7-6-14-9-23-9l-320 0c-9 0-16 3-23 9-6 7-9 14-9 23z m64 160c0-9 3-16 9-23 7-6 14-9 23-9l64 0 0-64c0-9 3-16 9-23 7-6 14-9 23-9 9 0 16 3 23 9 6 7 9 14 9 23l0 64 64 0c9 0 16 3 23 9 6 7 9 14 9 23 0 9-3 16-9 23-7 6-14 9-23 9l-64 0 0 64c0 9-3 16-9 23-7 6-14 9-23 9-9 0-16-3-23-9-6-7-9-14-9-23l0-64-64 0c-9 0-16-3-23-9-6-7-9-14-9-23z"/>
<glyph unicode="&#57372;" d="M0 96c0-27 9-49 28-68 19-19 42-28 68-28l320 0c27 0 49 9 68 28 19 19 28 41 28 68l0 320c0 26-9 49-28 68-19 19-41 28-68 28l-320 0c-26 0-49-9-68-28-19-19-28-42-28-68z m64 0l0 320c0 9 3 16 9 23 7 6 14 9 23 9l320 0c9 0 16-3 23-9 6-7 9-14 9-23l0-320c0-9-3-16-9-23-7-6-14-9-23-9l-320 0c-9 0-16 3-23 9-6 7-9 14-9 23z m64 160c0-9 3-16 9-23 7-6 14-9 23-9l192 0c9 0 16 3 23 9 6 7 9 14 9 23 0 9-3 16-9 23-7 6-14 9-23 9l-192 0c-9 0-16-3-23-9-6-7-9-14-9-23z"/>
<glyph unicode="&#57373;" d="M0 96l64 0c0-9 3-16 9-23 7-6 14-9 23-9l0-64c-26 0-49 9-68 28-19 19-28 41-28 68z m0 64l0 64 64 0 0-64z m0 128l0 64 64 0 0-64z m0 128c0 26 9 49 28 68 19 19 42 28 68 28l0-64c-9 0-16-3-23-9-6-7-9-14-9-23z m160-352l64 0 0-64-64 0z m0 384l0 64 64 0 0-64z m128-384l64 0 0-64-64 0z m0 384l0 64 64 0 0-64z m128-384c9 0 16 3 23 9 6 7 9 14 9 23l64 0c0-27-9-49-28-68-19-19-41-28-68-28z m0 384l0 64c27 0 49-9 68-28 19-19 28-42 28-68l-64 0c0 9-3 16-9 23-7 6-14 9-23 9z m32-288l0 64 64 0 0-64z m0 128l0 64 64 0 0-64z"/>
<glyph unicode="&#57374;" d="M0 96c0-27 9-49 28-68 19-19 42-28 68-28l0 64c-9 0-16 3-23 9-6 7-9 14-9 23z m0 64l64 0 0 64-64 0z m0 128l64 0 0 64-64 0z m0 128l64 0c0 9 3 16 9 23 7 6 14 9 23 9l0 64c-26 0-49-9-68-28-19-19-28-42-28-68z m128-192l96 0 0-96 64 0 0 96 96 0 0 64-96 0 0 96-64 0 0-96-96 0z m32-160l0-64 64 0 0 64z m0 384l64 0 0 64-64 0z m128-384l0-64 64 0 0 64z m0 384l64 0 0 64-64 0z m128-384l0-64c27 0 49 9 68 28 19 19 28 41 28 68l-64 0c0-9-3-16-9-23-7-6-14-9-23-9z m0 384c9 0 16-3 23-9 6-7 9-14 9-23l64 0c0 26-9 49-28 68-19 19-41 28-68 28z m32-288l64 0 0 64-64 0z m0 128l64 0 0 64-64 0z"/>
<glyph unicode="&#57375;" d="M0 96c0-27 9-49 28-68 19-19 42-28 68-28l0 64c-9 0-16 3-23 9-6 7-9 14-9 23z m0 64l64 0 0 64-64 0z m0 128l64 0 0 64-64 0z m0 128l64 0c0 9 3 16 9 23 7 6 14 9 23 9l0 64c-26 0-49-9-68-28-19-19-28-42-28-68z m128-192l0 64 256 0 0-64z m32-160l0-64 64 0 0 64z m0 384l64 0 0 64-64 0z m128-384l0-64 64 0 0 64z m0 384l64 0 0 64-64 0z m128-384l0-64c27 0 49 9 68 28 19 19 28 41 28 68l-64 0c0-9-3-16-9-23-7-6-14-9-23-9z m0 384c9 0 16-3 23-9 6-7 9-14 9-23l64 0c0 26-9 49-28 68-19 19-41 28-68 28z m32-288l64 0 0 64-64 0z m0 128l64 0 0 64-64 0z"/>
<glyph unicode="&#57376;" d="M0 96l64 0c0-9 3-16 9-23 7-6 14-9 23-9l0-64c-26 0-49 9-68 28-19 19-28 41-28 68z m0 64l0 64 64 0 0-64z m0 128l0 64 64 0 0-64z m0 128c0 26 9 49 28 68 19 19 42 28 68 28l0-64c-9 0-16-3-23-9-6-7-9-14-9-23z m160-352l64 0 0-64-64 0z m0 192l96 128 96-128-64 0 0-128-64 0 0 128z m0 192l0 64 64 0 0-64z m128-384l64 0 0-64-64 0z m0 384l0 64 64 0 0-64z m128-384c9 0 16 3 23 9 6 7 9 14 9 23l64 0c0-27-9-49-28-68-19-19-41-28-68-28z m0 384l0 64c27 0 49-9 68-28 19-19 28-42 28-68l-64 0c0 9-3 16-9 23-7 6-14 9-23 9z m32-288l0 64 64 0 0-64z m0 128l0 64 64 0 0-64z"/>
<glyph unicode="&#57377;" d="M0 96c0-27 9-49 28-68 19-19 42-28 68-28l0 64c-9 0-16 3-23 9-6 7-9 14-9 23z m0 64l64 0 0 64-64 0z m0 128l64 0 0 64-64 0z m0 128l64 0c0 9 3 16 9 23 7 6 14 9 23 9l0 64c-26 0-49-9-68-28-19-19-28-42-28-68z m160-352l0-64 64 0 0 64z m0 192l96-128 96 128-64 0 0 128-64 0 0-128z m0 192l64 0 0 64-64 0z m128-384l0-64 64 0 0 64z m0 384l64 0 0 64-64 0z m128-384l0-64c27 0 49 9 68 28 19 19 28 41 28 68l-64 0c0-9-3-16-9-23-7-6-14-9-23-9z m0 384c9 0 16-3 23-9 6-7 9-14 9-23l64 0c0 26-9 49-28 68-19 19-41 28-68 28z m32-288l64 0 0 64-64 0z m0 128l64 0 0 64-64 0z"/>
<glyph unicode="&#57378;" d="M0 96c0-14 3-27 9-41l55 55 0 291-55 55c-6-13-9-26-9-40z m54 406l53-54 298 0 54 54c-15 7-29 10-43 10l-320 0c-14 0-28-3-42-10z m0-492c14-7 28-10 42-10l320 0c15 0 28 3 42 10l-54 54-296 0z m74 118l256 0 0 64-256 0z m0 96l256 0 0 64-256 0z m0 96l256 0 0 64-256 0z m320-210l55-55c6 14 9 27 9 41l0 320c0 14-3 27-9 40l-55-55z"/>
<glyph unicode="&#57379;" d="M0 96l0 320c0 26 9 49 28 68 19 19 42 28 68 28l320 0c27 0 49-9 68-28 19-19 28-42 28-68l0-320c0-27-9-49-28-68-19-19-41-28-68-28l-320 0c-26 0-49 9-68 28-19 19-28 41-28 68z m64 0c0-9 3-16 9-23 7-6 14-9 23-9l320 0c9 0 16 3 23 9 6 7 9 14 9 23l0 320c0 9-3 16-9 23-7 6-14 9-23 9l-320 0c-9 0-16-3-23-9-6-7-9-14-9-23z m64 32l0 64 64 0 0-64z m0 96l0 64 64 0 0-64z m0 96l0 64 64 0 0-64z m96-192l0 64 64 0 0-64z m0 96l0 64 64 0 0-64z m0 96l0 64 64 0 0-64z m96-192l0 64 64 0 0-64z m0 96l0 64 64 0 0-64z m0 96l0 64 64 0 0-64z"/>
<glyph unicode="&#57380;" d="M0 96c0-27 9-49 28-68 19-19 42-28 68-28l320 0c27 0 49 9 68 28 19 19 28 41 28 68l0 320c0 26-9 49-28 68-19 19-41 28-68 28l-320 0c-26 0-49-9-68-28-19-19-28-42-28-68z m64 0l0 320c0 9 3 16 9 23 7 6 14 9 23 9l320 0c9 0 16-3 23-9 6-7 9-14 9-23l0-320c0-9-3-16-9-23-7-6-14-9-23-9l-320 0c-9 0-16 3-23 9-6 7-9 14-9 23z m64 32l96 0 0 96-96 0z m0 160l96 0 0 96-96 0z m32-128l0 32 32 0 0-32z m0 160l0 32 32 0 0-32z m128-192l96 0 0 96-96 0z m0 160l96 0 0 96-96 0z m32-128l0 32 32 0 0-32z m0 160l0 32 32 0 0-32z"/>
<glyph unicode="&#57381;" d="M0 96l0 320c0 26 9 49 28 68 19 19 42 28 68 28l320 0c27 0 49-9 68-28 19-19 28-42 28-68l0-320c0-27-9-49-28-68-19-19-41-28-68-28l-320 0c-26 0-49 9-68 28-19 19-28 41-28 68z m64 0c0-9 3-16 9-23 7-6 14-9 23-9l320 0c9 0 16 3 23 9 6 7 9 14 9 23l0 320c0 9-3 16-9 23-7 6-14 9-23 9l-320 0c-9 0-16-3-23-9-6-7-9-14-9-23z m64 32l0 64 64 0 0-64z m0 96l0 64 64 0 0-64z m0 96l0 64 64 0 0-64z m96-192l0 64 160 0 0-64z m0 96l0 64 160 0 0-64z m0 96l0 64 160 0 0-64z"/>
<glyph unicode="&#57382;" d="M0 96c0-27 9-49 28-68 19-19 42-28 68-28l320 0c27 0 49 9 68 28 19 19 28 41 28 68l0 320c0 26-9 49-28 68-19 19-41 28-68 28l-320 0c-26 0-49-9-68-28-19-19-28-42-28-68z m64 0l0 320c0 9 3 16 9 23 7 6 14 9 23 9l320 0c9 0 16-3 23-9 6-7 9-14 9-23l0-320c0-9-3-16-9-23-7-6-14-9-23-9l-320 0c-9 0-16 3-23 9-6 7-9 14-9 23z m64 32l96 0 0 96-96 0z m0 160l96 0 0 96-96 0z m32-128l0 32 32 0 0-32z m0 160l0 32 32 0 0-32z m96-160l128 0 0 32-128 0z m0 160l128 0 0 32-128 0z"/>
<glyph unicode="&#57383;" d="M0 96c0-27 9-49 28-68 19-19 42-28 68-28l320 0c27 0 49 9 68 28 19 19 28 41 28 68l0 320c0 26-9 49-28 68-19 19-41 28-68 28l-320 0c-26 0-49-9-68-28-19-19-28-42-28-68l0-64 64 0 0 64c0 9 3 16 9 23 7 6 14 9 23 9l320 0c9 0 16-3 23-9 6-7 9-14 9-23l0-320c0-9-3-16-9-23-7-6-14-9-23-9l-320 0c-9 0-16 3-23 9-6 7-9 14-9 23l0 64-64 0z m0 128l128 0 0-64 128 96-128 96 0-64-128 0z"/>
<glyph unicode="&#57384;" d="M0 96c0-27 9-49 28-68 19-19 42-28 68-28l320 0c27 0 49 9 68 28 19 19 28 41 28 68l0 320c0 26-9 49-28 68-19 19-41 28-68 28l-320 0c-26 0-49-9-68-28-19-19-28-42-28-68l0-80 64 40 0 40c0 9 3 16 9 23 7 6 14 9 23 9l320 0c9 0 16-3 23-9 6-7 9-14 9-23l0-320c0-9-3-16-9-23-7-6-14-9-23-9l-320 0c-9 0-16 3-23 9-6 7-9 14-9 23l0 40-64 40z m0 160l128-96 0 64 128 0 0 64-128 0 0 64z"/>
<glyph unicode="&#57385;" d="M0 96c0-27 10-49 29-68 19-19 41-28 67-28l320 0c27 0 49 9 68 28 19 19 28 41 28 68l0 320c0 26-9 49-28 68-19 19-41 28-68 28l-64 0 0-64 64 0c9 0 16-3 23-9 6-7 9-14 9-23l0-320c0-9-3-16-9-23-7-6-14-9-23-9l-320 0c-9 0-16 3-23 9-6 7-9 14-9 23l0 320c0 9 3 16 9 23 7 6 14 9 23 9l64 0 0 64-64 0c-26 0-49-9-68-28-19-19-28-42-28-68z m96 0l320 0-64 96-192 0z m64 288l96-128 96 128-64 0 0 128-64 0 0-128z"/>
<glyph unicode="&#57386;" d="M0 96c0-27 9-49 28-68 19-19 42-28 68-28l320 0c27 0 49 9 68 28 19 19 28 41 28 68l0 320c0 26-9 49-28 68-19 19-41 28-68 28l-80 0 40-64 40 0c9 0 16-3 23-9 6-7 9-14 9-23l0-320c0-9-3-16-9-23-7-6-14-9-23-9l-320 0c-9 0-16 3-23 9-6 7-9 14-9 23l0 320c0 9 3 16 9 23 7 6 14 9 23 9l40 0 40 64-80 0c-26 0-49-9-68-28-19-19-28-42-28-68z m96 0l320 0-64 96-192 0z m64 288l64 0 0-128 64 0 0 128 64 0-96 128z"/>
<glyph unicode="&#57387;" d="M0 104c0-25 9-46 27-64 17-18 39-27 64-27l303 0c25 0 47 9 64 27 18 18 27 39 27 64l0 132-60-51 0-81c0-8-3-15-9-21-6-6-14-9-22-9l-303 0c-8 0-15 3-21 9-6 6-9 13-9 21l0 303c0 9 3 16 9 22 6 6 13 9 21 9l152 0 0 60-152 0c-25 0-47-8-64-26-18-18-27-39-27-65z m91 91c0-29 6-57 18-84 5 31 17 60 35 85 18 26 41 47 69 62 28 16 58 25 90 27l0-90 182 152-182 151 0-91c-29 0-56-5-82-16-26-11-49-27-68-46-19-19-34-41-45-67-11-26-17-54-17-83z m421-36l0 0 0 0z"/>
<glyph unicode="&#57388;" d="M0 32l256 0 0 64-256 0z m0 128l512 0 0 64-512 0z m0 128l512 0 0 64-512 0z m0 128l512 0 0 64-512 0z"/>
<glyph unicode="&#57389;" d="M0 32l320 0 0 64-320 0z m0 128l448 0 0 64-448 0z m0 128l384 0 0 64-384 0z m0 128l512 0 0 64-512 0z"/>
<glyph unicode="&#57390;" d="M0 416l512 0 0 64-512 0z m32-256l448 0 0 64-448 0z m32 128l384 0 0 64-384 0z m32-256l320 0 0 64-320 0z"/>
<glyph unicode="&#57391;" d="M0 416l0 64 512 0 0-64z m64-256l0 64 448 0 0-64z m64 128l0 64 384 0 0-64z m64-256l0 64 320 0 0-64z"/>
<glyph unicode="&#57392;" d="M0 96c0-27 9-49 28-68 19-19 42-28 68-28l320 0c27 0 49 9 68 28 19 19 28 41 28 68l0 320c0 26-9 49-28 68-19 19-41 28-68 28l-320 0c-26 0-49-9-68-28-19-19-28-42-28-68z m64 0l0 320c0 9 3 16 9 23 7 6 14 9 23 9l320 0c9 0 16-3 23-9 6-7 9-14 9-23l0-320c0-9-3-16-9-23-7-6-14-9-23-9l-320 0c-9 0-16 3-23 9-6 7-9 14-9 23z m64 64l128 0 0 32-128 0z m0 64l256 0 0 32-256 0z m0 64l256 0 0 32-256 0z m0 64l256 0 0 32-256 0z"/>
<glyph unicode="&#57393;" d="M0 96c0-27 9-49 28-68 19-19 42-28 68-28l320 0c27 0 49 9 68 28 19 19 28 41 28 68l0 320c0 26-9 49-28 68-19 19-41 28-68 28l-320 0c-26 0-49-9-68-28-19-19-28-42-28-68z m64 0l0 320c0 9 3 16 9 23 7 6 14 9 23 9l320 0c9 0 16-3 23-9 6-7 9-14 9-23l0-320c0-9-3-16-9-23-7-6-14-9-23-9l-320 0c-9 0-16 3-23 9-6 7-9 14-9 23z m64 64l96 0 0 32-96 0z m0 64l160 0 0 32-160 0z m0 64l128 0 0 32-128 0z m0 64l192 0 0 32-192 0z"/>
<glyph unicode="&#57394;" d="M0 96c0-27 9-49 28-68 19-19 42-28 68-28l320 0c27 0 49 9 68 28 19 19 28 41 28 68l0 320c0 26-9 49-28 68-19 19-41 28-68 28l-320 0c-26 0-49-9-68-28-19-19-28-42-28-68z m64 0l0 320c0 9 3 16 9 23 7 6 14 9 23 9l320 0c9 0 16-3 23-9 6-7 9-14 9-23l0-320c0-9-3-16-9-23-7-6-14-9-23-9l-320 0c-9 0-16 3-23 9-6 7-9 14-9 23z m64 256l256 0 0 32-256 0z m32-128l192 0 0 32-192 0z m32 64l128 0 0 32-128 0z m32-128l64 0 0 32-64 0z"/>
<glyph unicode="&#57395;" d="M0 96c0-27 9-49 28-68 19-19 42-28 68-28l320 0c27 0 49 9 68 28 19 19 28 41 28 68l0 320c0 26-9 49-28 68-19 19-41 28-68 28l-320 0c-26 0-49-9-68-28-19-19-28-42-28-68z m64 0l0 320c0 9 3 16 9 23 7 6 14 9 23 9l320 0c9 0 16-3 23-9 6-7 9-14 9-23l0-320c0-9-3-16-9-23-7-6-14-9-23-9l-320 0c-9 0-16 3-23 9-6 7-9 14-9 23z m128 256l192 0 0 32-192 0z m32-128l160 0 0 32-160 0z m32 64l128 0 0 32-128 0z m32-128l96 0 0 32-96 0z"/>
<glyph unicode="&#57396;" d="M0 224c0-27 9-49 28-68 19-19 42-28 69-28l33 0 161-128 0 512-161-128-33 0c-27 0-50-9-69-28-19-19-28-42-28-68z m65 0l0 64c0 9 3 16 9 23 7 6 14 9 23 9l65 0 65 64 0-256-65 64-65 0c-9 0-16 3-23 9-6 7-9 14-9 23z m264-13l46-46 46 46 45-46 46 46-46 45 46 45-46 45-45-45-46 45-46-45 46-45z"/>
<glyph unicode="&#57397;" d="M0 224c0-27 9-49 28-68 19-19 42-28 69-28l33 0 161-128 0 512-161-128-33 0c-27 0-50-9-69-28-19-19-28-42-28-68z m65 0l0 64c0 9 3 16 9 23 7 6 14 9 23 9l65 0 65 64 0-256-65 64-65 0c-9 0-16 3-23 9-6 7-9 14-9 23z"/>
<glyph unicode="&#57398;" d="M0 224c0-27 9-49 28-68 19-19 42-28 69-28l33 0 161-128 0 512-161-128-33 0c-27 0-50-9-69-28-19-19-28-42-28-68z m65 0l0 64c0 9 3 16 9 23 7 6 14 9 23 9l65 0 65 64 0-256-65 64-65 0c-9 0-16 3-23 9-6 7-9 14-9 23z m257-92c28 8 51 23 69 45 18 23 27 49 27 79 0 29-9 56-27 78-18 23-41 38-69 45l0-68c10-6 18-13 24-23 5-10 8-21 8-32 0-12-3-22-8-32-6-10-14-17-24-23z"/>
<glyph unicode="&#57399;" d="M0 224c0-27 9-49 28-68 19-19 42-28 69-28l33 0 161-128 0 512-161-128-33 0c-27 0-50-9-69-28-19-19-28-42-28-68z m65 0l0 64c0 9 3 16 9 23 7 6 14 9 23 9l65 0 65 64 0-256-65 64-65 0c-9 0-16 3-23 9-6 7-9 14-9 23z m255-148l0-68c37 10 69 26 98 50 29 24 52 53 69 88 17 34 25 71 25 110 0 39-8 76-25 110-17 35-40 64-69 88-29 24-61 40-98 50l0-68c38-13 69-36 92-69 24-33 36-70 36-111 0-41-12-78-36-111-23-33-54-56-92-69z m0 56c28 8 51 23 69 45 18 23 27 49 27 79 0 29-9 56-27 78-18 23-41 38-69 45l0-68c10-6 17-13 23-23 6-10 9-20 9-32 0-12-3-22-9-32-6-10-13-17-23-23z"/>
<glyph unicode="&#57400;" d="M0 256c0-9 3-16 9-23 7-6 14-9 23-9l32 0c9 0 16 3 23 9 6 7 9 14 9 23 0 9-3 16-9 23-7 6-14 9-23 9l-32 0c-9 0-16-3-23-9-6-7-9-14-9-23z m66-158c0-9 3-17 9-23 6-6 14-10 23-10 9 0 16 4 22 10l23 22c6 7 10 14 10 23 0 9-4 17-10 23-6 6-14 9-23 9-9 0-16-3-22-9l-23-23c-6-6-9-13-9-22z m0 316c0-9 3-16 9-22l23-23c6-6 13-9 22-9 9 0 17 3 23 9 6 6 10 14 10 23 0 9-4 16-10 22l-23 23c-6 6-13 9-22 9-9 0-17-3-23-9-6-6-9-14-9-23z m62-158c0-35 13-66 38-91 25-25 55-37 90-37 35 0 66 12 91 37 25 25 37 56 37 91 0 35-12 65-37 90-25 25-56 38-91 38-35 0-65-13-90-38-25-25-38-55-38-90z m64 0c0 18 6 33 19 45 12 13 27 19 45 19 18 0 33-6 45-19 13-12 19-27 19-45 0-18-6-33-19-45-12-13-27-19-45-19-18 0-33 6-45 19-13 12-19 27-19 45z m32-192l0-32c0-9 3-16 9-23 7-6 14-9 23-9 9 0 16 3 23 9 6 7 9 14 9 23l0 32c0 9-3 16-9 23-7 6-14 9-23 9-9 0-16-3-23-9-6-7-9-14-9-23z m0 384c0-9 3-16 9-23 7-6 14-9 23-9 9 0 16 3 23 9 6 7 9 14 9 23l0 32c0 9-3 16-9 23-7 6-14 9-23 9-9 0-16-3-23-9-6-7-9-14-9-23z m136-328c0-9 3-16 9-23l23-22c6-6 13-10 22-10 9 0 17 4 23 10 6 6 10 14 10 23 0 9-4 16-10 22l-22 23c-7 6-14 9-23 9-9 0-17-3-23-9-6-6-9-14-9-23z m0 272c0-9 3-17 9-23 6-6 14-9 23-9 9 0 16 3 23 9l22 23c6 6 10 13 10 22 0 9-4 17-10 23-6 6-14 9-23 9-9 0-16-3-22-9l-23-23c-6-6-9-13-9-22z m56-136c0-9 3-16 9-23 7-6 14-9 23-9l32 0c9 0 16 3 23 9 6 7 9 14 9 23 0 9-3 16-9 23-7 6-14 9-23 9l-32 0c-9 0-16-3-23-9-6-7-9-14-9-23z"/>
<glyph unicode="&#57401;" d="M32 256c0-9 3-16 9-23 7-6 14-9 23-9 9 0 16 3 23 9 6 7 9 14 9 23 0 9-3 16-9 23-7 6-14 9-23 9-9 0-16-3-23-9-6-7-9-14-9-23z m56-136c0-9 3-16 10-23 6-6 13-9 22-9 9 0 17 3 23 9 6 7 9 14 9 23 0 9-3 17-9 23-6 6-14 9-23 9-9 0-16-3-22-9-7-6-10-14-10-23z m0 272c0-9 3-17 10-23 6-6 13-9 22-9 9 0 17 3 23 9 6 6 9 14 9 23 0 9-3 16-9 22-6 7-14 10-23 10-9 0-16-3-22-10-7-6-10-13-10-22z m40-136c0-35 13-66 38-91 25-25 55-37 90-37 35 0 66 12 91 37 25 25 37 56 37 91 0 35-12 65-37 90-25 25-56 38-91 38-35 0-65-13-90-38-25-25-38-55-38-90z m64 0c0 18 6 33 19 45 12 13 27 19 45 19 18 0 33-6 45-19 13-12 19-27 19-45 0-18-6-33-19-45-12-13-27-19-45-19-18 0-33 6-45 19-13 12-19 27-19 45z m32-192c0-9 3-16 9-23 7-6 14-9 23-9 9 0 16 3 23 9 6 7 9 14 9 23 0 9-3 16-9 23-7 6-14 9-23 9-9 0-16-3-23-9-6-7-9-14-9-23z m0 384c0-9 3-16 9-23 7-6 14-9 23-9 9 0 16 3 23 9 6 7 9 14 9 23 0 9-3 16-9 23-7 6-14 9-23 9-9 0-16-3-23-9-6-7-9-14-9-23z m136-328c0-9 3-16 9-23 6-6 14-9 23-9 9 0 16 3 23 9 6 7 9 14 9 23 0 9-3 17-9 23-7 6-14 9-23 9-9 0-17-3-23-9-6-6-9-14-9-23z m0 272c0-9 3-17 9-23 6-6 14-9 23-9 9 0 16 3 23 9 6 6 9 14 9 23 0 9-3 16-9 22-7 7-14 10-23 10-9 0-17-3-23-10-6-6-9-13-9-22z m56-136c0-9 3-16 9-23 7-6 14-9 23-9 9 0 16 3 23 9 6 7 9 14 9 23 0 9-3 16-9 23-7 6-14 9-23 9-9 0-16-3-23-9-6-7-9-14-9-23z"/>
<glyph unicode="&#57402;" d="M0 256c0-35 7-68 20-100 14-31 32-58 55-81 23-23 50-41 82-55 31-13 64-20 99-20 35 0 68 7 100 20 31 14 58 32 81 55 23 23 41 50 55 81 13 32 20 65 20 100 0 35-7 68-20 100-14 31-32 58-55 81-23 23-50 41-81 55-32 13-65 20-100 20-35 0-68-7-99-20-32-14-59-32-82-55-23-23-41-50-55-82-13-31-20-64-20-99z m64 0c0 35 9 67 26 96 17 30 40 53 70 70 29 17 61 26 96 26 35 0 67-9 96-26 30-17 53-40 70-70 17-29 26-61 26-96 0-35-9-67-26-96-17-30-40-53-70-70-29-17-61-26-96-26-35 0-67 9-96 26-30 17-53 40-70 70-17 29-26 61-26 96z m192-160c29 0 56 7 80 21 25 15 44 34 59 59 14 24 21 51 21 80 0 29-7 56-21 80-15 25-34 44-59 58-24 15-51 22-80 22z"/>
<glyph unicode="&#57403;" d="M0 96c0-27 9-49 28-68 19-19 42-28 68-28l320 0c27 0 49 9 68 28 19 19 28 41 28 68l0 320c0 26-9 49-28 68-19 19-41 28-68 28l-320 0c-26 0-49-9-68-28-19-19-28-42-28-68z m64 0l0 320c0 9 3 16 9 23 7 6 14 9 23 9l320 0c9 0 16-3 23-9 6-7 9-14 9-23l0-320c0-9-3-16-9-23-7-6-14-9-23-9l-320 0c-9 0-16 3-23 9-6 7-9 14-9 23z m32 32c0-9 3-16 9-23 7-6 14-9 23-9l256 0c9 0 16 3 23 9 6 7 9 14 9 23l0 15c-2 5-8 19-18 43-10 24-18 43-25 58-7 14-14 25-21 33-5 6-11 10-18 10-6 1-12-2-18-6-6-5-12-11-18-18-7-8-13-16-19-25-6-9-12-18-19-28-6-9-13-17-18-25-6-8-12-14-18-19-6-5-12-7-17-7-6 0-15 8-27 23-2 2-4 5-7 10-12 16-21 25-26 29-8 5-14 3-19-6-2-5-7-17-15-36-7-18-13-32-17-41z m0 240c0-13 5-25 14-34 9-9 21-14 34-14 13 0 25 5 34 14 9 9 14 21 14 34 0 13-5 25-14 34-9 9-21 14-34 14-13 0-25-5-34-14-9-9-14-21-14-34z"/>
<glyph unicode="&#57404;" d="M0 96c0-27 9-49 28-68 19-19 42-28 68-28l320 0c27 0 49 9 68 28 19 19 28 41 28 68l0 320c0 26-9 49-28 68-19 19-41 28-68 28l-320 0c-26 0-49-9-68-28-19-19-28-42-28-68z m64 0l0 320c0 9 3 16 9 23 7 6 14 9 23 9l320 0c9 0 16-3 23-9 6-7 9-14 9-23l0-320c0-9-3-16-9-23-7-6-14-9-23-9l-320 0c-9 0-16 3-23 9-6 7-9 14-9 23z m32 32l32 0 0-32 32 0 0 320-64 0 0-32 32 0 0-32-32 0 0-32 32 0 0-32-32 0 0-32 32 0 0-32-32 0 0-32 32 0 0-32-32 0z m96-32l128 0 0 64-128 0z m0 96l128 0 0 128-128 0z m0 160l128 0 0 64-128 0z m160-256l32 0 0 32 32 0 0 32-32 0 0 32 32 0 0 32-32 0 0 32 32 0 0 32-32 0 0 32 32 0 0 32-32 0 0 32 32 0 0 32-64 0z"/>
<glyph unicode="&#57405;" d="M0 96l0 320c0 26 9 49 28 68 19 19 42 28 68 28l320 0c27 0 49-9 68-28 19-19 28-42 28-68l0-320c0-27-9-49-28-68-19-19-41-28-68-28l-320 0c-26 0-49 9-68 28-19 19-28 41-28 68z m64 0c0-9 3-16 9-23 7-6 14-9 23-9l320 0c9 0 16 3 23 9 6 7 9 14 9 23l0 192-384 0z m0 288l32 0 0-32 64 0 0 32 32 0 0-32 64 0 0 32 32 0 0-32 64 0 0 32 32 0 0-32 64 0 0 64c0 9-3 16-9 23-7 6-14 9-23 9l-32 0 0-32-32 0 0 32-64 0 0-32-32 0 0 32-64 0 0-32-32 0 0 32-64 0 0-32-32 0z m32-288l0 32 224 0 0-32z m0 64l0 32 288 0 0-32z m0 64l0 32 288 0 0-32z m0 160l0 32 32 0 0-32z m96 0l0 32 32 0 0-32z m96 0l0 32 32 0 0-32z m96 0l0 32 32 0 0-32z"/>
<glyph unicode="&#57406;" d="M17 0l478 0c0 20-7 39-22 57-15 18-35 33-61 46-26 12-55 22-88 27l0 25c21 12 38 29 50 50 12 21 19 43 19 68l0 3c10 4 18 10 24 19 7 8 10 18 10 29 0 11-3 21-10 30-6 8-14 14-24 18l0 3c0 25-7 48-19 69-12 21-28 38-49 50-21 12-44 18-69 18-25 0-47-6-68-18-21-12-38-29-50-50-12-21-18-44-18-69l0-3c-10-4-19-10-25-18-7-9-10-19-10-30 0-11 3-21 10-29 6-9 15-15 25-19l0-3c0-25 6-47 18-68 12-21 29-38 50-50l0-25c-33-5-62-15-88-27-26-13-46-28-61-46-15-18-22-37-22-57z"/>
<glyph unicode="&#57407;" d="M64 96c0-27 9-49 28-68 19-19 42-28 68-28l192 0c27 0 49 9 68 28 19 19 28 41 28 68-5 29-16 55-34 79-18 23-40 42-65 57 23 25 35 54 35 88l0 64c0 35-12 65-37 90-25 25-56 38-91 38-35 0-65-13-90-38-25-25-38-55-38-90l0-64c0-34 12-63 36-88-26-15-48-34-66-57-18-24-29-50-34-79z m64 0c7 28 23 51 47 69 24 18 51 27 81 27 30 0 57-9 81-27 24-18 40-41 47-69 0-9-3-16-9-23-7-6-14-9-23-9l-192 0c-9 0-16 3-23 9-6 7-9 14-9 23z m64 224l0 64c0 18 6 33 19 45 12 13 27 19 45 19 18 0 33-6 45-19 13-12 19-27 19-45l0-64c0-18-6-33-19-45-12-13-27-19-45-19-18 0-33 6-45 19-13 12-19 27-19 45z"/>
<glyph unicode="&#57408;" d="M0 96c0-27 9-49 28-68 19-19 42-28 68-28l192 0c27 0 49 9 68 28 19 19 28 41 28 68-5 29-16 55-34 79-18 23-40 42-65 57 23 25 35 54 35 88l0 64c0 35-12 65-37 90-25 25-56 38-91 38-35 0-65-13-90-38-25-25-38-55-38-90l0-64c0-34 12-63 36-88-26-15-48-34-66-57-18-24-29-50-34-79z m64 0c7 27 23 50 47 68 24 19 51 28 81 28 30 0 57-9 81-28 24-18 40-41 47-68 0-9-3-17-9-23-7-6-14-9-23-9l-192 0c-9 0-16 3-23 9-6 6-9 14-9 23z m64 224l0 64c0 17 6 32 19 45 12 12 27 19 45 19 18 0 33-7 45-19 13-13 19-28 19-45l0-64c0-18-6-33-19-46-12-12-27-18-45-18-18 0-33 6-45 18-13 13-19 28-19 46z m163 188c10 3 20 4 29 4 35 0 66-13 91-38 25-25 37-55 37-90l0-64c0-34-12-64-35-89 25-14 47-33 65-57 18-23 29-50 34-78 0-27-9-49-28-68-19-19-41-28-68-28l-44 0c20 17 33 38 40 64l4 0c9 0 16 3 23 9 6 6 9 14 9 23-4 15-11 30-21 43-10 13-23 24-37 33-16 27-36 49-60 68 4 6 7 13 10 19 13 5 24 12 32 23 8 11 12 24 12 38l0 64c0 14-4 26-12 37-8 11-19 19-32 23-10 25-26 47-49 64z"/>
<glyph unicode="&#57409;" d="M0 256c0-35 7-68 20-99 14-32 32-59 55-82 23-23 50-41 82-55 31-13 64-20 99-20 35 0 68 7 100 20 31 14 58 32 81 55 23 23 41 50 55 82 13 31 20 64 20 99 0 35-7 68-20 100-14 31-32 58-55 81-23 23-50 41-81 55-32 13-65 20-100 20-35 0-68-7-99-20-32-14-59-32-82-55-23-23-41-50-55-82-13-31-20-64-20-99z m64 0c0 35 9 67 26 96 17 30 40 53 70 70 29 17 61 26 96 26 35 0 67-9 96-26 30-17 53-40 70-70 17-29 26-61 26-96 0-35-9-67-26-96-17-30-40-53-70-70-29-17-61-26-96-26-35 0-67 9-96 26-30 17-53 40-70 70-17 29-26 61-26 96z m96-112c0-6 1-12 4-18 28-20 58-30 92-30 34 0 64 10 92 30 3 6 4 12 4 18-2 14-8 27-17 39-9 12-20 22-33 29 12 12 18 27 18 44l0 32c0 18-6 33-19 45-12 13-27 19-45 19-18 0-33-6-45-19-13-12-19-27-19-45l0-32c0-17 6-32 18-44-13-7-24-17-33-29-9-12-14-25-17-39z"/>
<glyph unicode="&#57410;" d="M0 96c0-27 9-49 28-68 19-19 42-28 68-28l320 0c27 0 49 9 68 28 19 19 28 41 28 68l0 320c0 26-9 49-28 68-19 19-41 28-68 28l-320 0c-26 0-49-9-68-28-19-19-28-42-28-68z m64 32l0 288c0 9 3 16 9 23 7 6 14 9 23 9l320 0c9 0 16-3 23-9 6-7 9-14 9-23l0-288z m96 80c0-13 5-25 14-34 10-9 21-14 34-14l96 0c13 0 25 5 34 14 9 9 14 21 14 34-2 14-8 27-17 39-9 12-20 22-33 29 12 12 18 27 18 44l0 32c0 18-6 33-19 45-12 13-27 19-45 19-18 0-33-6-45-19-13-12-19-27-19-45l0-32c0-17 6-32 18-44-13-7-24-17-33-29-9-12-14-25-17-39z"/>
<glyph unicode="&#57411;" d="M0 96c0-27 9-49 28-68 19-19 42-28 68-28l320 0c27 0 49 9 68 28 19 19 28 41 28 68l0 320c0 26-9 49-28 68-19 19-41 28-68 28l-320 0c-26 0-49-9-68-28-19-19-28-42-28-68z m64 32l0 288c0 9 3 16 9 23 7 6 14 9 23 9l320 0c9 0 16-3 23-9 6-7 9-14 9-23l0-288z m96 80c0-13 5-25 14-34 10-9 21-14 34-14l96 0c13 0 25 5 34 14 9 9 14 21 14 34-2 14-8 27-17 39-9 12-20 22-33 29 12 12 18 27 18 44l0 32c0 18-6 33-19 45-12 13-27 19-45 19-18 0-33-6-45-19-13-12-19-27-19-45l0-32c0-17 6-32 18-44-13-7-24-17-33-29-9-12-14-25-17-39z m32 0c4 14 12 25 24 34 12 9 25 14 40 14 15 0 28-5 40-14 12-9 20-20 24-34 0-4-2-8-5-11-3-3-7-5-11-5l-96 0c-4 0-8 2-11 5-3 3-5 7-5 11z m32 112l0 32c0 9 3 16 9 23 7 6 14 9 23 9 9 0 16-3 23-9 6-7 9-14 9-23l0-32c0-9-3-16-9-23-7-6-14-9-23-9-9 0-16 3-23 9-6 7-9 14-9 23z"/>
<glyph unicode="&#57412;" d="M4 317c6-22 17-41 34-57l218-227 219 227c16 16 27 35 33 57 6 22 6 44 0 66-6 22-17 42-33 58-17 16-36 27-58 33-22 6-44 6-66 0-22-6-41-17-58-33l-37-45-37 45c-17 16-36 27-58 33-22 6-44 6-66 0-22-6-41-17-57-33-17-16-28-36-34-58-6-22-6-44 0-66z"/>
<glyph unicode="&#57413;" d="M4 318c6-22 17-42 34-58l218-228 219 228c16 16 27 36 33 58 6 22 6 44 0 66-6 22-17 42-33 58-17 17-36 28-58 34-22 6-44 6-66 0-22-6-41-17-58-34l-37-45-37 45c-17 17-36 28-58 34-22 6-44 6-66 0-22-6-41-17-57-34-17-16-28-36-34-58-6-22-6-44 0-66z m252-195l0 182 83 92c12 12 27 18 45 18 18 0 33-6 45-18 13-13 19-28 19-46 0-18-6-33-19-46z"/>
<glyph unicode="&#57414;" d="M4 318c6-22 17-42 34-58l218-228 219 228c16 16 27 36 33 58 6 22 6 44 0 66-6 22-17 42-33 58-17 17-36 28-58 34-22 6-44 6-66 0-22-6-41-17-58-34l-37-45-37 45c-17 17-36 28-58 34-22 6-44 6-66 0-22-6-41-17-57-34-17-16-28-36-34-58-6-22-6-44 0-66z m60 33c0 18 6 33 19 46 12 12 27 18 45 18 18 0 33-6 46-18l82-92 83 92c12 12 27 18 45 18 18 0 33-6 45-18 13-13 19-28 19-46 0-18-6-33-19-46l-173-182-173 182c-13 13-19 28-19 46z"/>
<glyph unicode="&#57415;" d="M0 256c0 9 3 16 9 23 7 6 14 9 23 9l32 0c0 0 1 0 1 0 0 0 1 0 1-1 1 0 1 0 1 0 5 29 16 56 33 80-1 1-2 2-2 2l-23 23c-6 6-9 13-9 22 0 9 3 17 9 23 6 6 14 9 23 9 9 0 16-3 22-9l23-23c0 0 1-1 2-2 24 17 51 28 80 33 0 0 0 1-1 1 0 1 0 2 0 2l0 32c0 9 3 16 9 23 7 6 14 9 23 9 9 0 16-3 23-9 6-7 9-14 9-23l0-32c0 0 0-1 0-2 0 0 0-1 0-1 29-5 55-16 80-33 0 1 1 2 1 2l23 23c6 6 13 9 22 9 9 0 17-3 23-9 6-6 10-14 10-23 0-9-4-16-10-22l-22-23c-1 0-2-1-3-2 17-24 28-51 33-80 0 0 1 0 1 1 1 0 2 0 2 0l32 0c9 0 16-3 23-9 6-7 9-14 9-23 0-9-3-16-9-23-7-6-14-9-23-9l-32 0c0 0-1 0-2 0 0 1-1 1-1 1-5-29-16-56-33-81 1 0 2-1 3-1l22-23c6-6 10-13 10-22 0-9-4-17-10-23-6-6-14-10-23-10-9 0-16 4-22 10l-23 22c0 1-1 2-1 3-25-17-51-28-80-33 0 0 0-1 0-2 0 0 0-1 0-1l0-32c0-9-3-16-9-23-7-6-14-9-23-9-9 0-16 3-23 9-6 7-9 14-9 23l0 32c0 0 0 1 0 2 1 0 1 1 1 1-29 5-56 16-80 33-1-1-2-2-2-3l-23-22c-6-6-13-10-22-10-9 0-17 4-23 10-6 6-9 14-9 23 0 9 3 16 9 22l23 23c0 0 1 1 2 1-17 25-28 52-33 81 0 0 0 0-1-1-1 0-1 0-2 0l-32 0c-9 0-16 3-23 9-6 7-9 14-9 23z m128 0c0-35 13-66 38-91 25-25 55-37 90-37 35 0 66 12 91 37 25 25 37 56 37 91 0 35-12 65-37 90-25 25-56 38-91 38-35 0-65-13-90-38-25-25-38-55-38-90z"/>
<glyph unicode="&#57416;" d="M0 256c0 9 3 16 9 23 7 6 14 9 23 9l32 0c0 0 1 0 1 0 0 0 1 0 1-1 1 0 1 0 1 0 5 29 16 56 33 80-1 1-2 2-2 2l-23 23c-6 6-9 13-9 22 0 9 3 17 9 23 6 6 14 9 23 9 9 0 16-3 22-9l23-23c0 0 1-1 2-2 24 17 51 28 80 33 0 0 0 1-1 1 0 1 0 2 0 2l0 32c0 9 3 16 9 23 7 6 14 9 23 9 9 0 16-3 23-9 6-7 9-14 9-23l0-32c0 0 0-1 0-2 0 0 0-1 0-1 29-5 55-16 80-33 0 1 1 2 1 2l23 23c6 6 13 9 22 9 9 0 17-3 23-9 6-6 10-14 10-23 0-9-4-16-10-22l-22-23c-1 0-2-1-3-2 17-24 28-51 33-80 0 0 1 0 1 1 1 0 2 0 2 0l32 0c9 0 16-3 23-9 6-7 9-14 9-23 0-9-3-16-9-23-7-6-14-9-23-9l-32 0c0 0-1 0-2 0 0 1-1 1-1 1-5-29-16-56-33-81 1 0 2-1 3-1l22-23c6-6 10-13 10-22 0-9-4-17-10-23-6-6-14-10-23-10-9 0-16 4-22 10l-23 22c0 1-1 2-1 3-25-17-51-28-80-33 0 0 0-1 0-2 0 0 0-1 0-1l0-32c0-9-3-16-9-23-7-6-14-9-23-9-9 0-16 3-23 9-6 7-9 14-9 23l0 32c0 0 0 1 0 2 1 0 1 1 1 1-29 5-56 16-80 33-1-1-2-2-2-3l-23-22c-6-6-13-10-22-10-9 0-17 4-23 10-6 6-9 14-9 23 0 9 3 16 9 22l23 23c0 0 1 1 2 1-17 25-28 52-33 81 0 0 0 0-1-1-1 0-1 0-2 0l-32 0c-9 0-16 3-23 9-6 7-9 14-9 23z m160 0c0-27 9-49 28-68 19-19 42-28 68-28 27 0 49 9 68 28 19 19 28 41 28 68 0 26-9 49-28 68-19 19-41 28-68 28-26 0-49-9-68-28-19-19-28-42-28-68z"/>
<glyph unicode="&#57417;" d="M0 352c0 9 3 16 9 23 7 6 14 9 23 9l5 0c2 11 7 22 13 33l-3 3c-6 6-9 13-9 22 0 9 3 17 9 23 6 6 14 9 23 9 9 0 16-3 22-9l3-3c11 6 22 11 33 13l0 5c0 9 3 16 9 23 7 6 14 9 23 9 9 0 16-3 23-9 6-7 9-14 9-23l0-5c11-2 22-7 33-13l3 3c6 6 14 9 23 9 9 0 16-3 22-9 6-6 10-13 10-22 0-9-4-17-10-23l-3-3c6-11 11-22 14-33l4 0c9 0 16-3 23-9 6-7 9-14 9-23 0-9-3-16-9-23-7-6-14-9-23-9l-4 0c-3-11-8-22-14-33l3-3c6-6 10-14 10-23 0-9-4-16-10-22-6-6-13-10-22-10-9 0-17 4-23 10l-3 3c-11-6-22-11-33-14l0-4c0-9-3-16-9-23-7-6-14-9-23-9-9 0-16 3-23 9-6 7-9 14-9 23l0 4c-11 3-22 8-33 14l-3-3c-6-6-13-10-22-10-9 0-17 4-23 10-6 6-9 13-9 22 0 9 3 17 9 23l3 3c-6 11-11 22-13 33l-5 0c-9 0-16 3-23 9-6 7-9 14-9 23z m96 0c0-18 6-33 19-45 12-13 27-19 45-19 18 0 33 6 45 19 13 12 19 27 19 45 0 18-6 33-19 45-12 13-27 19-45 19-18 0-33-6-45-19-13-12-19-27-19-45z m160-224c0 9 3 16 9 23 7 6 14 9 23 9l6 0c1 3 2 6 4 9l-4 4c-7 6-10 14-10 23 0 9 3 16 10 22 6 7 13 10 22 10 9 0 17-3 23-10l4-4c3 2 6 3 9 4l0 6c0 9 3 16 9 23 7 6 14 9 23 9 9 0 16-3 23-9 6-7 9-14 9-23l0-6c2-1 5-2 9-4l4 4c6 7 14 10 23 10 9 0 16-3 23-10 6-6 9-13 9-22 0-9-3-17-9-23l-4-4c0-1 0-2 1-4 1-2 2-4 2-5l6 0c9 0 16-3 23-9 6-7 9-14 9-23 0-9-3-16-9-23-7-6-14-9-23-9l-6 0c-1-2-2-5-3-9l4-4c6-6 9-14 9-23 0-9-3-16-9-23-7-6-14-9-23-9-9 0-17 3-23 9l-4 4-9-3 0-6c0-9-3-16-9-23-7-6-14-9-23-9-9 0-16 3-23 9-6 7-9 14-9 23l0 6-9 3-4-4c-6-6-14-9-23-9-9 0-16 3-22 9-7 7-10 14-10 23 0 9 3 17 10 23l4 4c-2 4-3 7-4 9l-6 0c-9 0-16 3-23 9-6 7-9 14-9 23z m64 0c0-18 6-33 19-45 12-13 27-19 45-19 18 0 33 6 45 19 13 12 19 27 19 45 0 18-6 33-19 45-12 13-27 19-45 19-18 0-33-6-45-19-13-12-19-27-19-45z"/>
<glyph unicode="&#57418;" d="M0 96c0-26 9-49 28-68 19-19 42-28 68-28l320 0c27 0 49 9 68 28 19 19 28 42 28 68 0 27-9 49-28 68l-132 132 0 152c9 0 16 3 23 9 6 7 9 14 9 23 0 9-3 16-9 23-7 6-14 9-23 9l-192 0c-9 0-16-3-23-9-6-7-9-14-9-23 0-9 3-16 9-23 7-6 14-9 23-9l0-152-132-132c-19-19-28-41-28-68z m64 0c0 9 3 17 10 23l150 150 0 179 64 0 0-179 151-150c6-7 9-14 9-23 0-9-3-16-9-23-7-6-14-9-23-9l-320 0c-9 0-16 3-23 9-6 7-9 14-9 23z m32 0l64 64 192 0 64-64z"/>
<glyph unicode="&#57419;" d="M0 96c0 26 9 49 28 68l132 132 0 152c-9 0-16 3-23 9-6 7-9 14-9 23 0 9 3 16 9 23 7 6 14 9 23 9l192 0c9 0 16-3 23-9 6-7 9-14 9-23 0-9-3-16-9-23-7-6-14-9-23-9l0-152 132-132c19-19 28-41 28-68 0-26-9-49-28-68-19-19-41-28-68-28l-320 0c-27 0-49 9-68 28-19 19-28 41-28 68z m64 0c0-9 3-16 9-23 7-6 14-9 23-9l320 0c9 0 16 3 23 9 6 7 9 14 9 23 0 9-3 16-9 23l-151 150 0 179-64 0 0-179-150-150c-7-6-10-14-10-23z"/>
<glyph unicode="&#57420;" d="M0 96l0 320c0 26 9 49 28 68 19 19 42 28 68 28l320 0c27 0 49-9 68-28 19-19 28-42 28-68l0-320c0-27-9-49-28-68-19-19-41-28-68-28l-320 0c-26 0-49 9-68 28-19 19-28 41-28 68z m64-16c0-4 2-8 5-11 3-3 7-5 11-5 4 0 8 2 11 5 3 3 5 7 5 11 0 4-2 8-5 11-3 3-7 5-11 5-4 0-8-2-11-5-3-3-5-7-5-11z m0 352c0-4 2-8 5-11 3-3 7-5 11-5 4 0 8 2 11 5 3 3 5 7 5 11 0 4-2 8-5 11-3 3-7 5-11 5-4 0-8-2-11-5-3-3-5-7-5-11z m96-336c0-9 3-16 9-23 7-6 14-9 23-9l128 0c9 0 16 3 23 9 6 7 9 14 9 23l0 320c0 9-3 16-9 23-7 6-14 9-23 9l-128 0c-9 0-16-3-23-9-6-7-9-14-9-23z m32 192c0-9 3-16 9-23 7-6 14-9 23-9l64 0c9 0 16 3 23 9 6 7 9 14 9 23l0 96c0 9-3 16-9 23-7 6-14 9-23 9l-64 0c-9 0-16-3-23-9-6-7-9-14-9-23z m224-208c0-4 2-8 5-11 3-3 7-5 11-5 4 0 8 2 11 5 3 3 5 7 5 11 0 4-2 8-5 11-3 3-7 5-11 5-4 0-8-2-11-5-3-3-5-7-5-11z m0 352c0-4 2-8 5-11 3-3 7-5 11-5 4 0 8 2 11 5 3 3 5 7 5 11 0 4-2 8-5 11-3 3-7 5-11 5-4 0-8-2-11-5-3-3-5-7-5-11z"/>
<glyph unicode="&#57421;" d="M0 96l0 320c0 26 9 49 28 68 19 19 42 28 68 28l320 0c27 0 49-9 68-28 19-19 28-42 28-68l0-320c0-27-9-49-28-68-19-19-41-28-68-28l-320 0c-26 0-49 9-68 28-19 19-28 41-28 68z m64-16c0-4 2-8 5-11 3-3 7-5 11-5 4 0 8 2 11 5 3 3 5 7 5 11 0 4-2 8-5 11-3 3-7 5-11 5-4 0-8-2-11-5-3-3-5-7-5-11z m0 352c0-4 2-8 5-11 3-3 7-5 11-5 4 0 8 2 11 5 3 3 5 7 5 11 0 4-2 8-5 11-3 3-7 5-11 5-4 0-8-2-11-5-3-3-5-7-5-11z m96-336c0-9 3-16 9-23 7-6 14-9 23-9l128 0c9 0 16 3 23 9 6 7 9 14 9 23l0 320c0 9-3 16-9 23-7 6-14 9-23 9l-128 0c-9 0-16-3-23-9-6-7-9-14-9-23z m32 32c0-9 3-16 9-23 7-6 14-9 23-9l64 0c9 0 16 3 23 9 6 7 9 14 9 23l0 96c0 9-3 16-9 23-7 6-14 9-23 9l-64 0c-9 0-16-3-23-9-6-7-9-14-9-23z m224-48c0-4 2-8 5-11 3-3 7-5 11-5 4 0 8 2 11 5 3 3 5 7 5 11 0 4-2 8-5 11-3 3-7 5-11 5-4 0-8-2-11-5-3-3-5-7-5-11z m0 352c0-4 2-8 5-11 3-3 7-5 11-5 4 0 8 2 11 5 3 3 5 7 5 11 0 4-2 8-5 11-3 3-7 5-11 5-4 0-8-2-11-5-3-3-5-7-5-11z"/>
<glyph unicode="&#57422;" d="M0 96l0 320c0 26 9 49 28 68 19 19 42 28 68 28l320 0c27 0 49-9 68-28 19-19 28-42 28-68l0-320c0-27-9-49-28-68-19-19-41-28-68-28l-320 0c-26 0-49 9-68 28-19 19-28 41-28 68z m64-16c0-4 2-8 5-11 3-3 7-5 11-5 4 0 8 2 11 5 3 3 5 7 5 11 0 4-2 8-5 11-3 3-7 5-11 5-4 0-8-2-11-5-3-3-5-7-5-11z m0 112c0-9 3-16 9-23 7-6 14-9 23-9l320 0c9 0 16 3 23 9 6 7 9 14 9 23l0 128c0 9-3 16-9 23-7 6-14 9-23 9l-320 0c-9 0-16-3-23-9-6-7-9-14-9-23z m0 240c0-4 2-8 5-11 3-3 7-5 11-5 4 0 8 2 11 5 3 3 5 7 5 11 0 4-2 8-5 11-3 3-7 5-11 5-4 0-8-2-11-5-3-3-5-7-5-11z m32-208c0-9 3-16 9-23 7-6 14-9 23-9l96 0c9 0 16 3 23 9 6 7 9 14 9 23l0 64c0 9-3 16-9 23-7 6-14 9-23 9l-96 0c-9 0-16-3-23-9-6-7-9-14-9-23z m320-144c0-4 2-8 5-11 3-3 7-5 11-5 4 0 8 2 11 5 3 3 5 7 5 11 0 4-2 8-5 11-3 3-7 5-11 5-4 0-8-2-11-5-3-3-5-7-5-11z m0 352c0-4 2-8 5-11 3-3 7-5 11-5 4 0 8 2 11 5 3 3 5 7 5 11 0 4-2 8-5 11-3 3-7 5-11 5-4 0-8-2-11-5-3-3-5-7-5-11z"/>
<glyph unicode="&#57423;" d="M0 96l0 320c0 26 9 49 28 68 19 19 42 28 68 28l320 0c27 0 49-9 68-28 19-19 28-42 28-68l0-320c0-27-9-49-28-68-19-19-41-28-68-28l-320 0c-26 0-49 9-68 28-19 19-28 41-28 68z m64-16c0-4 2-8 5-11 3-3 7-5 11-5 4 0 8 2 11 5 3 3 5 7 5 11 0 4-2 8-5 11-3 3-7 5-11 5-4 0-8-2-11-5-3-3-5-7-5-11z m0 112c0-9 3-16 9-23 7-6 14-9 23-9l320 0c9 0 16 3 23 9 6 7 9 14 9 23l0 128c0 9-3 16-9 23-7 6-14 9-23 9l-320 0c-9 0-16-3-23-9-6-7-9-14-9-23z m0 240c0-4 2-8 5-11 3-3 7-5 11-5 4 0 8 2 11 5 3 3 5 7 5 11 0 4-2 8-5 11-3 3-7 5-11 5-4 0-8-2-11-5-3-3-5-7-5-11z m192-208c0-9 3-16 9-23 7-6 14-9 23-9l96 0c9 0 16 3 23 9 6 7 9 14 9 23l0 64c0 9-3 16-9 23-7 6-14 9-23 9l-96 0c-9 0-16-3-23-9-6-7-9-14-9-23z m160-144c0-4 2-8 5-11 3-3 7-5 11-5 4 0 8 2 11 5 3 3 5 7 5 11 0 4-2 8-5 11-3 3-7 5-11 5-4 0-8-2-11-5-3-3-5-7-5-11z m0 352c0-4 2-8 5-11 3-3 7-5 11-5 4 0 8 2 11 5 3 3 5 7 5 11 0 4-2 8-5 11-3 3-7 5-11 5-4 0-8-2-11-5-3-3-5-7-5-11z"/>
<glyph unicode="&#57424;" d="M32 384c0-9 3-16 9-23 7-6 14-9 23-9l0-256c0-27 9-49 28-68 19-19 42-28 68-28l192 0c27 0 49 9 68 28 19 19 28 41 28 68l0 256c9 0 16 3 23 9 6 7 9 14 9 23 0 9-3 16-9 23-7 6-14 9-23 9l-96 0c0 26-9 49-28 68-19 19-41 28-68 28-26 0-49-9-68-28-19-19-28-42-28-68l-96 0c-9 0-16-3-23-9-6-7-9-14-9-23z m96-288l0 256 256 0 0-256c0-9-3-16-9-23-7-6-14-9-23-9l-192 0c-9 0-16 3-23 9-6 7-9 14-9 23z m32 0l32 0 0 224-32 0z m64 0l64 0 0 224-64 0z m0 320c0 9 3 16 9 23 7 6 14 9 23 9 9 0 16-3 23-9 6-7 9-14 9-23z m96-320l32 0 0 224-32 0z"/>
<glyph unicode="&#57425;" d="M64 416l64-352c0-12 6-22 17-32 12-10 27-18 47-23 19-6 41-9 64-9 23 0 45 3 64 9 20 5 35 13 47 23 11 10 17 20 17 32l64 352c0 17-9 33-26 48-17 15-40 27-70 35-29 9-61 13-96 13-35 0-67-4-96-13-30-8-53-20-70-35-17-15-26-31-26-48z m64 0c0 11 6 22 17 32 12 10 27 18 47 23 19 6 41 9 64 9 23 0 45-3 64-9 20-5 35-13 47-23 11-10 17-21 17-32 0-12-6-22-17-32-12-10-27-18-47-23-19-6-41-9-64-9-23 0-45 3-64 9-20 5-35 13-47 23-11 10-17 20-17 32z"/>
<glyph unicode="&#57426;" d="M0 96c0-21 6-39 18-56 12-16 27-28 46-34l0 186c0 9 3 16 9 23 7 6 14 9 23 9l320 0c9 0 16-3 23-9 6-7 9-14 9-23l0-186c19 6 34 18 46 34 12 17 18 35 18 56l0 320c0 21-6 39-18 55-12 17-27 28-46 35l0-186c0-9-3-16-9-23-7-6-14-9-23-9l-320 0c-9 0-16 3-23 9-6 7-9 14-9 23l0 186c-19-7-34-18-46-35-12-16-18-34-18-55z m96-64c0-9 3-16 9-23 7-6 14-9 23-9l256 0c9 0 16 3 23 9 6 7 9 14 9 23l0 128c0 9-3 16-9 23-7 6-14 9-23 9l-256 0c-9 0-16-3-23-9-6-7-9-14-9-23z m64 320c0-9 3-16 9-23 7-6 14-9 23-9l192 0c9 0 16 3 23 9 6 7 9 14 9 23l0 128c0 9-3 16-9 23-7 6-14 9-23 9l-192 0c-9 0-16-3-23-9-6-7-9-14-9-23z m160 32l0 64c0 9 3 16 9 23 7 6 14 9 23 9 9 0 16-3 23-9 6-7 9-14 9-23l0-64c0-9-3-16-9-23-7-6-14-9-23-9-9 0-16 3-23 9-6 7-9 14-9 23z"/>
<glyph unicode="&#57427;" d="M0 32c0-9 3-16 9-23 7-6 14-9 23-9l128 0 0 16c0 4 2 8 5 11 3 3 7 5 11 5 4 0 8-2 11-5 3-3 5-7 5-11l0-16 128 0 0 16c0 4 2 8 5 11 3 3 7 5 11 5 4 0 8-2 11-5 3-3 5-7 5-11l0-16 64 0 0 48c0 4 2 8 5 11 3 3 7 5 11 5 4 0 8-2 11-5 3-3 5-7 5-11l0-48 32 0c9 0 16 3 23 9 6 7 9 14 9 23l0 448c0 9-3 16-9 23-7 6-14 9-23 9l-448 0c-9 0-16-3-23-9-6-7-9-14-9-23z m32 384l0 32c0 9 3 16 9 23 7 6 14 9 23 9l384 0c9 0 16-3 23-9 6-7 9-14 9-23l0-32c0-9-3-16-9-23-7-6-14-9-23-9l-384 0c-9 0-16 3-23 9-6 7-9 14-9 23z m32 0l224 0 0 32-224 0z m96-160c0 26 9 49 28 68 19 19 42 28 68 28 27 0 49-9 68-28 19-19 28-42 28-68 0-27-9-49-28-68-19-19-41-28-68-28-26 0-49 9-68 28-19 19-28 41-28 68z m32 0c0-18 6-33 19-45 12-13 27-19 45-19 18 0 33 6 45 19 13 12 19 27 19 45 0 18-6 33-19 45-12 13-27 19-45 19-18 0-33-6-45-19-13-12-19-27-19-45z m32-192l0 32c0 9 3 16 9 23 7 6 14 9 23 9 9 0 16-3 23-9 6-7 9-14 9-23l0-32c0-9-3-16-9-23-7-6-14-9-23-9-9 0-16 3-23 9-6 7-9 14-9 23z m0 192c0 9 3 16 9 23 7 6 14 9 23 9 9 0 16-3 23-9 6-7 9-14 9-23 0-9-3-16-9-23-7-6-14-9-23-9-9 0-16 3-23 9-6 7-9 14-9 23z"/>
<glyph unicode="&#57428;" d="M0 96c0-27 9-49 28-68 19-19 42-28 68-28l320 0c27 0 49 9 68 28 19 19 28 41 28 68l0 320c0 21-6 39-18 55-12 17-27 28-46 35l0-42c0-13-5-25-14-34-9-9-21-14-34-14-13 0-25 5-34 14-9 9-14 21-14 34l0 48-192 0 0-48c0-13-5-25-14-34-9-9-21-14-34-14-13 0-25 5-34 14-9 9-14 21-14 34l0 42c-19-7-34-18-46-35-12-16-18-34-18-55z m64 0l0 256 384 0 0-256c0-9-3-16-9-23-7-6-14-9-23-9l-320 0c-9 0-16 3-23 9-6 7-9 14-9 23z m32 0l160 0 0 32-160 0z m0 64l320 0 0 32-320 0z m0 64l320 0 0 32-320 0z m0 64l320 0 0 32-320 0z m0 176c0-4 2-8 5-11 3-3 7-5 11-5 4 0 8 2 11 5 3 3 5 7 5 11l0 48-32 0z m288 0c0-4 2-8 5-11 3-3 7-5 11-5 4 0 8 2 11 5 3 3 5 7 5 11l0 48-32 0z"/>
<glyph unicode="&#57429;" d="M0 96c0-27 9-49 28-68 19-19 42-28 68-28l320 0c27 0 49 9 68 28 19 19 28 41 28 68l0 320c0 21-6 39-18 55-12 17-27 28-46 35l0-42c0-13-5-25-14-34-9-9-21-14-34-14-13 0-25 5-34 14-9 9-14 21-14 34l0 48-192 0 0-48c0-13-5-25-14-34-9-9-21-14-34-14-13 0-25 5-34 14-9 9-14 21-14 34l0 42c-19-7-34-18-46-35-12-16-18-34-18-55z m64 0l0 256 384 0 0-256c0-9-3-16-9-23-7-6-14-9-23-9l-320 0c-9 0-16 3-23 9-6 7-9 14-9 23z m32 368c0-4 2-8 5-11 3-3 7-5 11-5 4 0 8 2 11 5 3 3 5 7 5 11l0 48-32 0z m32-336l64 0 0 64-64 0z m0 96l64 0 0 64-64 0z m96-96l64 0 0 64-64 0z m0 96l64 0 0 64-64 0z m96-96l64 0 0 64-64 0z m0 96l64 0 0 64-64 0z m64 240c0-4 2-8 5-11 3-3 7-5 11-5 4 0 8 2 11 5 3 3 5 7 5 11l0 48-32 0z"/>
<glyph unicode="&#57430;" d="M0 128c0-9 3-16 9-23 7-6 14-9 23-9l32 0c0-27 9-49 28-68 19-19 42-28 68-28l107 0c-23 16-41 37-55 64l-52 0c-9 0-16 3-23 9-6 7-9 14-9 23l0 320c0 9 3 16 9 23 7 6 14 9 23 9l256 0c9 0 16-3 23-9 6-7 9-14 9-23l0-116c27-14 48-32 64-55l0 171c0 26-9 49-28 68-19 19-41 28-68 28l-256 0c-26 0-49-9-68-28-19-19-28-42-28-68l-32 0c-9 0-16-3-23-9-6-7-9-14-9-23 0-9 3-16 9-23 7-6 14-9 23-9l32 0 0-64-32 0c-9 0-16-3-23-9-6-7-9-14-9-23 0-9 3-16 9-23 7-6 14-9 23-9l32 0 0-64-32 0c-9 0-16-3-23-9-6-7-9-14-9-23z m160 0l34 0c0 1-1 3-1 7-1 4-1 7-1 9 0 2 0 5 1 9 0 4 1 6 1 7l-34 0z m0 64l40 0c3 12 7 22 12 32l-52 0z m0 64l73 0c11 13 22 24 34 32l-107 0z m0 64l256 0 0 32-256 0z m0 64l256 0 0 32-256 0z m64-240c0-20 4-38 11-56 8-18 18-33 31-46 13-13 28-23 46-31 18-7 37-11 56-11 20 0 38 4 56 11 18 8 33 18 46 31 13 13 23 28 31 46 7 18 11 36 11 56 0 19-4 38-11 56-8 18-18 33-31 46-13 13-28 23-46 31-18 7-36 11-56 11-19 0-38-4-56-11-18-8-33-18-46-31-13-13-23-28-31-46-7-18-11-37-11-56z m64 0c0 22 8 41 23 57 16 15 35 23 57 23 22 0 41-8 57-23 15-16 23-35 23-57 0-22-8-41-23-57-16-15-35-23-57-23-22 0-41 8-57 23-15 16-23 35-23 57z m64 0c0-4 2-8 5-11 3-3 7-5 11-5l32 0c4 0 8 2 11 5 3 3 5 7 5 11 0 4-2 8-5 11-3 3-7 5-11 5l-16 0 0 16c0 4-2 8-5 11-3 3-7 5-11 5-4 0-8-2-11-5-3-3-5-7-5-11z"/>
<glyph unicode="&#57431;" d="M32 32c0-9 3-16 9-23 7-6 14-9 23-9l384 0c9 0 16 3 23 9 6 7 9 14 9 23l0 416c0 9-3 16-9 23-7 6-14 9-23 9l-64 0 0-64 32 0 0-352-320 0 0 352 32 0 0 64-64 0c-9 0-16-3-23-9-6-7-9-14-9-23z m96 64l256 0 0 288-32 0c0-9-3-16-9-23-7-6-14-9-23-9l-128 0c-9 0-16 3-23 9-6 7-9 14-9 23l-32 0z m32 320c0-9 3-16 9-23 7-6 14-9 23-9l128 0c9 0 16 3 23 9 6 7 9 14 9 23l0 64-64 0 0 32-64 0 0-32-64 0z m64 0l0 32 64 0 0-32z"/>
<glyph unicode="&#57432;" d="M32 32l0 416c0 9 3 16 9 23 7 6 14 9 23 9l64 0 0-64-32 0 0-352 320 0 0 352-32 0 0 64 64 0c9 0 16-3 23-9 6-7 9-14 9-23l0-416c0-9-3-16-9-23-7-6-14-9-23-9l-384 0c-9 0-16 3-23 9-6 7-9 14-9 23z m96 64l0 288 32 0c0-9 3-16 9-23 7-6 14-9 23-9l128 0c9 0 16 3 23 9 6 7 9 14 9 23l32 0 0-288z m32 64l160 0 0 32-160 0z m0 64l128 0 0 32-128 0z m0 64l192 0 0 32-192 0z m0 128l0 64 64 0 0 32 64 0 0-32 64 0 0-64c0-9-3-16-9-23-7-6-14-9-23-9l-128 0c-9 0-16 3-23 9-6 7-9 14-9 23z m64 0l64 0 0 32-64 0z"/>
<glyph unicode="&#57433;" d="M0 96l0 320c0 26 9 49 28 68 19 19 42 28 68 28l320 0c27 0 49-9 68-28 19-19 28-42 28-68l0-320c0-27-9-49-28-68-19-19-41-28-68-28l-320 0c-26 0-49 9-68 28-19 19-28 41-28 68z m64 0c0-9 3-16 9-23 7-6 14-9 23-9l320 0c9 0 16 3 23 9 6 7 9 14 9 23l0 320c0 9-3 16-9 23-7 6-14 9-23 9l-320 0c-9 0-16-3-23-9-6-7-9-14-9-23z m64 128l32 0 0 32-32 0z m0 128l32 0 0 32-32 0z m32-96l32 0 0 32-32 0z m0 64l32 0 0 32-32 0z m32-32l32 0 0 32-32 0z m32-64l96 0 0 32-96 0z"/>
<glyph unicode="&#57434;" d="M0 96c0-27 9-49 28-68 19-19 42-28 68-28l320 0c27 0 49 9 68 28 19 19 28 41 28 68l0 320c0 26-9 49-28 68-19 19-41 28-68 28l-320 0c-26 0-49-9-68-28-19-19-28-42-28-68z m64 0l0 320c0 9 3 16 9 23 7 6 14 9 23 9l320 0c9 0 16-3 23-9 6-7 9-14 9-23l0-320c0-9-3-16-9-23-7-6-14-9-23-9l-320 0c-9 0-16 3-23 9-6 7-9 14-9 23z m32 160c0-9 3-16 9-23 7-6 14-9 23-9l0-32c0-27 9-49 28-68 19-19 42-28 68-28l0 64c-9 0-16 3-23 9-6 7-9 14-9 23l0 32c-9 0-16 3-23 9-6 7-9 14-9 23 0 9 3 16 9 23 7 6 14 9 23 9l0 32c0 9 3 16 9 23 7 6 14 9 23 9l0 64c-26 0-49-9-68-28-19-19-28-42-28-68l0-32c-9 0-16-3-23-9-6-7-9-14-9-23z m192-160c27 0 49 9 68 28 19 19 28 41 28 68l0 32c9 0 16 3 23 9 6 7 9 14 9 23 0 9-3 16-9 23-7 6-14 9-23 9l0 32c0 26-9 49-28 68-19 19-41 28-68 28l0-64c9 0 16-3 23-9 6-7 9-14 9-23l0-32c9 0 16-3 23-9 6-7 9-14 9-23 0-9-3-16-9-23-7-6-14-9-23-9l0-32c0-9-3-16-9-23-7-6-14-9-23-9z"/>
<glyph unicode="&#57435;" d="M0 256c0-18 6-33 19-45 12-13 27-19 45-19 9 0 17-3 23-10 6-6 9-14 9-22l0-64c0-27 9-49 28-68 19-19 42-28 68-28l0 64c-9 0-16 3-23 9-6 7-9 14-9 23l0 64c0 26-9 49-28 68-19 19-41 28-68 28 27 0 49 9 68 28 19 19 28 41 28 68l0 64c0 9 3 17 10 23 6 6 14 9 22 9l0 64c-26 0-49-9-68-28-19-19-28-42-28-68l0-64c0-9-3-16-9-23-7-6-14-9-23-9-18 0-33-6-45-19-13-12-19-27-19-45z m224 0c0-9 3-16 9-23 7-6 14-9 23-9 9 0 16 3 23 9 6 7 9 14 9 23 0 9-3 16-9 23-7 6-14 9-23 9-9 0-16-3-23-9-6-7-9-14-9-23z m96-192l0-64c27 0 49 9 68 28 19 19 28 41 28 68l0 64c0 9 3 17 10 23 6 6 14 9 22 9 18 0 33 6 45 19 13 12 19 27 19 45 0 18-6 33-19 45-12 13-27 19-45 19-9 0-16 3-23 9-6 7-9 14-9 23l0 64c0 26-9 49-28 68-19 19-41 28-68 28l0-64c9 0 16-3 23-9 6-7 9-14 9-23l0-64c0-27 9-49 28-68 19-19 42-28 68-28-26 0-49-9-68-28-19-19-28-42-28-68l0-64c0-9-3-16-9-23-7-6-14-9-23-9z"/>
<glyph unicode="&#57436;" d="M96 0l128 0 0 64-64 0 0 384 64 0 0 64-128 0z m192 64l0-64 128 0 0 512-128 0 0-64 64 0 0-384z"/>
<glyph unicode="&#57437;" d="M0 96c0-27 9-49 28-68 19-19 42-28 68-28 27 0 49 9 68 28 19 19 28 41 28 68l0 32 128 0 0-32c0-27 10-49 29-68 19-19 41-28 67-28 27 0 49 9 68 28 19 19 28 41 28 68 0 26-9 49-28 68-19 19-41 28-68 28l-32 0 0 128 32 0c27 0 49 9 68 28 19 19 28 41 28 68 0 26-9 49-28 68-19 19-41 28-68 28-26 0-49-9-68-28-19-19-28-42-28-68 0-11 2-21 6-32l-140 0c4 11 6 22 6 32 0 26-9 49-28 68-19 19-41 28-68 28-26 0-49-9-68-28-19-19-28-42-28-68 0-27 9-49 28-68 19-19 42-28 68-28l32 0 0-128-32 0c-27 0-49-10-68-29-19-19-28-41-28-67z m64 0c0 9 3 16 9 23 7 6 14 9 23 9 9 0 16-3 23-9 6-7 9-14 9-23 0-9-3-16-9-23-7-6-14-9-23-9-9 0-16 3-23 9-6 7-9 14-9 23z m0 320c0 9 3 16 9 23 7 6 14 9 23 9 9 0 16-3 23-9 6-7 9-14 9-23 0-9-3-16-9-23-7-6-14-9-23-9-9 0-16 3-23 9-6 7-9 14-9 23z m128-224l0 128 128 0 0-128z m192-96c0 9 3 16 9 23 7 6 14 9 23 9 9 0 16-3 23-9 6-7 9-14 9-23 0-9-3-16-9-23-7-6-14-9-23-9-9 0-16 3-23 9-6 7-9 14-9 23z m0 320c0 9 3 16 9 23 7 6 14 9 23 9 9 0 16-3 23-9 6-7 9-14 9-23 0-9-3-16-9-23-7-6-14-9-23-9-9 0-16 3-23 9-6 7-9 14-9 23z"/>
<glyph unicode="&#57438;" d="M32 224c0-30 6-59 18-87 12-28 28-52 48-72 20-20 43-35 71-47 28-12 57-18 87-18 30 0 59 6 87 18 28 12 52 27 72 47 20 20 35 44 47 72 12 28 18 57 18 87 0 44-12 84-35 120-24 36-54 63-93 81l0-74c20-15 35-33 47-55 11-22 17-46 17-72 0-29-7-56-21-80-15-25-34-44-59-59-24-14-51-21-80-21-22 0-42 4-62 13-20 8-37 20-51 34-14 14-26 31-34 51-9 20-13 40-13 62 0 26 6 50 17 72 12 22 27 40 47 55l0 74c-38-18-69-45-93-81-23-36-35-76-35-120z m192 64c0-9 3-16 9-23 7-6 14-9 23-9 9 0 16 3 23 9 6 7 9 14 9 23l0 192c0 9-3 16-9 23-7 6-14 9-23 9-9 0-16-3-23-9-6-7-9-14-9-23z"/>
<glyph unicode="&#57439;" d="M0 96c0-27 9-49 28-68 19-19 42-28 68-28l32 0 0 192c-9 0-16 3-23 9-6 7-9 14-9 23l0 288c-26 0-49-9-68-28-19-19-28-42-28-68z m160-96l192 0 0 192c-9 0-16 3-23 9-6 7-9 14-9 23l0 288-128 0 0-288c0-9-3-16-9-23-7-6-14-9-23-9z m224 0l32 0c27 0 49 9 68 28 19 19 28 41 28 68l0 320c0 26-9 49-28 68-19 19-41 28-68 28l0-288c0-9-3-16-9-23-7-6-14-9-23-9z"/>
<glyph unicode="&#57440;" d="M0 96c0-27 9-49 28-68 19-19 42-28 68-28l320 0c27 0 49 9 68 28 19 19 28 41 28 68l0 320c0 26-9 49-28 68-19 19-41 28-68 28l-320 0c-26 0-49-9-68-28-19-19-28-42-28-68z m64 0l0 320c0 9 3 16 9 23 7 6 14 9 23 9l320 0c9 0 16-3 23-9 6-7 9-14 9-23l0-320c0-9-3-16-9-23-7-6-14-9-23-9l-320 0c-9 0-16 3-23 9-6 7-9 14-9 23z m64 192c0-9 3-16 9-23 7-6 14-9 23-9l0-144c0-4 2-8 5-11 3-3 7-5 11-5 4 0 8 2 11 5 3 3 5 7 5 11l0 144c9 0 16 3 23 9 6 7 9 14 9 23l0 32c0 9-3 16-9 23-7 6-14 9-23 9l0 48c0 4-2 8-5 11-3 3-7 5-11 5-4 0-8-2-11-5-3-3-5-7-5-11l0-48c-9 0-16-3-23-9-6-7-9-14-9-23z m160-96c0-9 3-16 9-23 7-6 14-9 23-9l0-48c0-4 2-8 5-11 3-3 7-5 11-5 4 0 8 2 11 5 3 3 5 7 5 11l0 48c9 0 16 3 23 9 6 7 9 14 9 23l0 32c0 9-3 16-9 23-7 6-14 9-23 9l0 144c0 4-2 8-5 11-3 3-7 5-11 5-4 0-8-2-11-5-3-3-5-7-5-11l0-144c-9 0-16-3-23-9-6-7-9-14-9-23z"/>
<glyph unicode="&#57441;" d="M0 146c0-26 7-50 20-73 13-22 30-40 53-53 22-13 47-20 73-20 27 0 51 7 74 20 22 13 40 31 53 53 13 23 20 47 20 73l0 220c0 20 7 37 21 52 14 14 32 21 52 21 20 0 37-7 51-22 15-14 22-31 22-51l0-329c0-10 3-19 11-26 7-7 15-11 26-11 10 0 18 4 25 11 7 7 11 16 11 26l0 329c0 26-7 51-20 73-13 23-30 41-53 54-22 13-47 19-73 19-27 0-51-6-74-19-22-13-40-31-53-54-13-22-19-47-19-73l0-220c0-20-8-37-22-51-14-14-32-22-52-22-20 0-37 8-51 22-15 14-22 31-22 51l0 330c0 10-3 19-10 26-8 7-16 10-26 10-11 0-19-3-26-11-7-7-11-15-11-25z"/>
<glyph unicode="&#57442;" d="M0 64l0-64c27 0 49 9 68 28 19 19 28 41 28 68l0 320c0 9 3 16 9 23 7 6 14 9 23 9 9 0 16-3 23-9 6-7 9-14 9-23l0-320c0-27 9-49 28-68 19-19 42-28 68-28 27 0 49 9 68 28 19 19 28 41 28 68l0 320c0 9 3 16 9 23 7 6 14 9 23 9 9 0 16-3 23-9 6-7 9-14 9-23l0-320c0-27 9-49 28-68 19-19 42-28 68-28l0 64c-9 0-16 3-23 9-6 7-9 14-9 23l0 320c0 26-9 49-28 68-19 19-41 28-68 28-26 0-49-9-68-28-19-19-28-42-28-68l0-320c0-9-3-16-9-23-7-6-14-9-23-9-9 0-16 3-23 9-6 7-9 14-9 23l0 320c0 26-9 49-28 68-19 19-41 28-68 28-26 0-49-9-68-28-19-19-28-42-28-68l0-320c0-9-3-17-10-23-6-6-13-9-22-9z"/>
<glyph unicode="&#57443;" d="M0 256c0 35 7 68 20 99 14 32 32 59 55 82 23 23 50 41 82 55 31 13 64 20 99 20 35 0 68-7 100-20 31-14 58-32 81-55 23-23 41-50 55-81 13-32 20-65 20-100 0-35-7-68-20-100-14-31-32-58-55-81-23-23-50-41-81-55-32-13-65-20-100-20-35 0-68 7-99 20-32 14-59 32-82 55-23 23-41 50-55 81-13 32-20 65-20 100z m64 0c0-35 9-67 26-96 17-30 40-53 70-70 29-17 61-26 96-26 35 0 67 9 96 26 30 17 53 40 70 70 17 29 26 61 26 96 0 35-9 67-26 96-17 30-40 53-70 70-29 17-61 26-96 26-35 0-67-9-96-26-30-17-53-40-70-70-17-29-26-61-26-96z m32 0c0 22 4 42 13 62 8 20 20 37 34 51 14 14 31 26 51 34 20 9 40 13 62 13l0-32c-35 0-65-13-90-38-25-25-38-55-38-90z m64 0c0 26 9 49 28 68 19 19 42 28 68 28 27 0 49-9 68-28 19-19 28-42 28-68 0-27-9-49-28-68-19-19-41-28-68-28-26 0-49 9-68 28-19 19-28 41-28 68z m64 0c0-9 3-16 9-23 7-6 14-9 23-9 9 0 16 3 23 9 6 7 9 14 9 23 0 9-3 16-9 23-7 6-14 9-23 9-9 0-16-3-23-9-6-7-9-14-9-23z m32-160l0 32c35 0 66 12 91 37 25 25 37 56 37 91l32 0c0-29-7-56-21-80-15-25-34-44-59-59-24-14-51-21-80-21z"/>
<glyph unicode="&#57444;" d="M0 256c0-35 7-68 20-100 14-31 32-58 55-81 23-23 50-41 82-55 31-13 64-20 99-20 35 0 68 7 100 20 31 14 58 32 81 55 23 23 41 50 55 81 13 32 20 65 20 100 0 35-7 68-20 100-14 31-32 58-55 81-23 23-50 41-81 55-32 13-65 20-100 20-35 0-68-7-99-20-32-14-59-32-82-55-23-23-41-50-55-82-13-31-20-64-20-99z m64 0c0 35 9 67 26 96 17 30 40 53 70 70 29 17 61 26 96 26 35 0 67-9 96-26 30-17 53-40 70-70 17-29 26-61 26-96 0-35-9-67-26-96-17-30-40-53-70-70-29-17-61-26-96-26-35 0-67 9-96 26-30 17-53 40-70 70-17 29-26 61-26 96z m50-56c-2-8-1-16 4-24 4-8 10-13 19-15 8-2 16-1 24 3 8 5 13 11 15 20 2 8 1 16-3 24-4 8-11 13-19 15-9 2-17 1-25-3-7-5-12-11-15-20z m78 56c0-18 6-33 19-45 12-13 27-19 45-19 18 0 33 6 45 19 13 12 19 27 19 45 0 18-6 33-19 45-12 13-27 19-45 19-18 0-33-6-45-19-13-12-19-27-19-45z m32 0c0 9 3 16 9 23 7 6 14 9 23 9 9 0 16-3 23-9 6-7 9-14 9-23 0-9-3-16-9-23-7-6-14-9-23-9-9 0-16 3-23 9-6 7-9 14-9 23z m0 128c0-9 3-16 9-23 7-6 14-9 23-9 9 0 16 3 23 9 6 7 9 14 9 23 0 9-3 16-9 23-7 6-14 9-23 9-9 0-16-3-23-9-6-7-9-14-9-23z m112-200c2-9 7-15 15-20 8-4 16-5 24-3 9 2 15 7 20 15 4 8 5 16 3 24-3 9-8 15-15 20-8 4-16 5-24 3-9-2-15-7-20-15-4-8-5-16-3-24z"/>
<glyph unicode="&#57445;" d="M0 160c0-27 9-49 28-68 19-19 42-28 68-28l32 0c0 18 6 33 19 45 12 13 27 19 45 19l128 0c18 0 33-6 45-19 13-12 19-27 19-45l32 0c27 0 49 9 68 28 19 19 28 41 28 68l0 192c0 26-9 49-28 68-19 19-41 28-68 28l-320 0c-26 0-49-9-68-28-19-19-28-42-28-68z m64-64l0 32 32 0 0-32z m0 96l0 160c0 9 3 16 9 23 7 6 14 9 23 9l320 0c9 0 16-3 23-9 6-7 9-14 9-23l0-160c0-9-3-16-9-23-7-6-14-9-23-9l-320 0c-9 0-16 3-23 9-6 7-9 14-9 23z m32 48c0-13 5-25 14-34 9-9 21-14 34-14 13 0 25 5 34 14 9 9 14 21 14 34 0 13-5 25-14 34-9 9-21 14-34 14-13 0-25-5-34-14-9-9-14-21-14-34z m0 80l320 0 0 32-320 0z m67-256l186 0c-3 9-9 17-17 23-8 6-18 9-28 9l-96 0c-10 0-19-3-28-9-8-6-14-14-17-23z m61 160l64 0 0 32-64 0z m96 16c0-13 5-25 14-34 9-9 21-14 34-14 13 0 25 5 34 14 9 9 14 21 14 34 0 13-5 25-14 34-9 9-21 14-34 14-13 0-25-5-34-14-9-9-14-21-14-34z m96-144l0 32 32 0 0-32z"/>
<glyph unicode="&#57446;" d="M0 256c0-31 11-58 33-80 23-21 49-32 79-32l288 0c31 0 57 11 79 33 22 22 33 48 33 79 0 31-11 57-33 79-22 22-48 33-79 33-31 0-57-11-79-33-22-22-33-48-33-79 0-17 4-33 11-48l-86 0c7 15 11 31 11 48 0 31-11 57-33 79-22 22-48 33-79 33-31 0-57-11-79-33-22-22-33-48-33-79z m64 0c0 13 5 25 14 34 9 9 21 14 34 14 13 0 25-5 34-14 9-9 14-21 14-34 0-13-5-25-14-34-9-9-21-14-34-14-13 0-25 5-34 14-9 9-14 21-14 34z m288 0c0 13 5 25 14 34 9 9 21 14 34 14 13 0 25-5 34-14 9-9 14-21 14-34 0-13-5-25-14-34-9-9-21-14-34-14-13 0-25 5-34 14-9 9-14 21-14 34z"/>
<glyph unicode="&#57447;" d="M64 192c0-35 9-67 26-96 17-30 40-53 70-70 29-17 61-26 96-26 35 0 67 9 96 26 30 17 53 40 70 70 17 29 26 61 26 96 0 9-3 16-9 23-7 6-14 9-23 9-9 0-16-3-23-9-6-7-9-14-9-23 0-35-12-66-37-91-25-25-56-37-91-37-35 0-65 12-90 37-25 25-38 56-38 91 0 9-3 16-9 23-7 6-14 9-23 9-9 0-16-3-23-9-6-7-9-14-9-23z m96 0c0-27 9-49 28-68 19-19 42-28 68-28 27 0 49 9 68 28 19 19 28 41 28 68l0 32-48 0c-4 0-8 2-11 5-3 3-5 7-5 11 0 4 2 8 5 11 3 3 7 5 11 5l48 0 0 32-48 0c-4 0-8 2-11 5-3 3-5 7-5 11 0 4 2 8 5 11 3 3 7 5 11 5l48 0 0 32-48 0c-4 0-8 2-11 5-3 3-5 7-5 11 0 4 2 8 5 11 3 3 7 5 11 5l48 0 0 32-48 0c-4 0-8 2-11 5-3 3-5 7-5 11 0 4 2 8 5 11 3 3 7 5 11 5l42 0c-6 19-18 34-34 46-17 12-35 18-56 18-20 0-39-6-55-18-17-12-28-27-35-46l42 0c4 0 8-2 11-5 3-3 5-7 5-11 0-4-2-8-5-11-3-3-7-5-11-5l-48 0 0-32 48 0c4 0 8-2 11-5 3-3 5-7 5-11 0-4-2-8-5-11-3-3-7-5-11-5l-48 0 0-32 48 0c4 0 8-2 11-5 3-3 5-7 5-11 0-4-2-8-5-11-3-3-7-5-11-5l-48 0 0-32 48 0c4 0 8-2 11-5 3-3 5-7 5-11 0-4-2-8-5-11-3-3-7-5-11-5l-48 0z"/>
<glyph unicode="&#57448;" d="M110 219c0-23 7-44 20-63 14-19 31-32 53-40l0 48c0 6 2 10 5 13 4 4 8 6 13 6 5 0 10-2 13-6 4-3 6-7 6-13l0-128c0-10 3-18 10-25 7-7 16-11 26-11 10 0 19 4 26 11 7 7 11 15 11 25l0 128c0 6 1 10 5 13 3 4 8 6 13 6 5 0 9-2 13-6 3-3 5-7 5-13l0-48c22 8 39 21 53 40 13 19 20 40 20 63l-91 0c-5 0-10 2-13 6-4 3-5 8-5 13 0 5 1 9 5 13 3 3 8 5 13 5l91 0 0 36-54 0c-6 0-10 2-13 6-4 3-6 8-6 13 0 5 2 9 6 13 3 3 7 5 13 5l54 0 0 37-91 0c-5 0-10 1-13 5-4 3-5 8-5 13 0 5 1 9 5 13 3 3 8 5 13 5l91 0c0 24-7 45-20 64-14 18-31 32-53 39l0-48c0-5-2-9-5-13-4-3-8-5-13-5-5 0-10 2-13 5-4 4-5 8-5 13l0 55-73 0 0-55c0-5-2-9-6-13-3-3-8-5-13-5-5 0-9 2-13 5-3 4-5 8-5 13l0 48c-22-7-39-21-53-39-13-19-20-40-20-64l91 0c5 0 10-2 13-5 4-4 6-8 6-13 0-5-2-9-6-13-3-3-8-5-13-5l-91 0 0-37 55 0c5 0 9-2 13-5 3-4 5-8 5-13 0-5-2-10-5-13-4-4-8-6-13-6l-55 0 0-36 91 0c5 0 10-2 13-5 4-4 6-8 6-13 0-5-2-10-6-13-3-4-8-6-13-6z m110 92c0 5 1 9 5 13 3 3 8 5 13 5l36 0c5 0 10-2 13-5 4-4 6-8 6-13 0-5-2-10-6-13-3-4-8-6-13-6l-36 0c-5 0-10 2-13 6-4 3-5 8-5 13z"/>
<glyph unicode="&#57449;" d="M0 320c0 9 3 16 9 23 7 6 14 9 23 9 0 26 9 49 28 68 19 19 42 28 68 28l96 0 192 64c17 0 33-9 48-26 15-17 27-40 35-70 9-29 13-61 13-96 0-35-4-67-13-96-8-30-20-53-35-70-15-17-31-26-48-26l-192 64-8 0-24-160c0-9-3-16-9-23-7-6-14-9-23-9l-64 0c-9 0-16 3-23 9-6 7-9 14-9 23l26 168c-17 7-31 19-42 35-11 16-16 33-16 53-9 0-16 3-23 9-6 7-9 14-9 23z m96 0l32 0 0 64-32 0z m64 0l32 0 0 64-32 0z m192 0c0-23 3-45 9-64 5-20 13-35 23-47 10-11 21-17 32-17 12 0 22 6 32 17 10 12 18 27 23 47 6 19 9 41 9 64 0 23-3 45-9 64-5 20-13 35-23 47-10 11-20 17-32 17-11 0-22-6-32-17-10-12-18-27-23-47-6-19-9-41-9-64z m35-32c-4 21-4 43 0 64l29 0c9 0 16-3 23-9 6-7 9-14 9-23 0-9-3-16-9-23-7-6-14-9-23-9z"/>
<glyph unicode="&#57450;" d="M0 256c0-9 3-16 9-23 7-6 14-9 23-9 1 0 2 0 3 0 1 1 2 1 3 1 4-14 12-26 22-36 10-11 22-18 36-23l0-38c0-18 6-33 19-45 12-13 27-19 45-19 0-9 3-16 9-23 7-6 14-9 23-9l32 0c9 0 16 3 23 9 6 7 9 14 9 23l0 32c0 9-3 16-9 23-7 6-14 9-23 9l-32 0c-9 0-16-3-23-9-6-7-9-14-9-23-9 0-16 3-23 9-6 7-9 14-9 23l0 256 32 0c0 9 3 16 9 23 7 6 14 9 23 9l128 0c9 0 16-3 23-9 6-7 9-14 9-23l32 0 0-224c21 0 39 6 56 18 16 12 28 28 35 47 0 0 1 0 2-1 1 0 2 0 3 0 9 0 16 3 23 9 6 7 9 14 9 23 0 9-3 16-9 23-7 6-14 9-23 9-1 0-2 0-3-1-1 0-2 0-2 0-5 14-12 26-23 36-10 11-22 18-36 23l0 38c0 26-9 49-28 68-19 19-41 28-68 28l-128 0c-26 0-49-9-68-28-19-19-28-42-28-68l0-38c-14-5-26-12-36-23-11-10-18-22-23-36 0 0-1 0-2 0-1 1-2 1-3 1-9 0-16-3-23-9-6-7-9-14-9-23z m64-32l0 64 32 0 0-64z m352 0l0 64 32 0 0-64z"/>
<glyph unicode="&#57451;" d="M0 64l0 320c0 9 3 16 9 23 7 6 14 9 23 9l64 0c9 0 16 3 23 9 6 7 9 14 9 23 0 9 3 16 9 23 7 6 14 9 23 9l192 0c9 0 16-3 23-9 6-7 9-14 9-23 0-9 3-16 9-23 7-6 14-9 23-9l64 0c9 0 16-3 23-9 6-7 9-14 9-23l0-320c0-9-3-16-9-23-7-6-14-9-23-9l-448 0c-9 0-16 3-23 9-6 7-9 14-9 23z m96 192c0-22 4-42 13-62 8-20 20-37 34-51 14-14 31-26 51-34 20-9 40-13 62-13 29 0 56 7 80 21 25 15 44 34 59 59 14 24 21 51 21 80 0 29-7 56-21 80-15 25-34 44-59 58-24 15-51 22-80 22-22 0-42-4-62-13-20-8-37-20-51-34-14-14-26-31-34-51-9-20-13-40-13-62z m64 0c0 26 9 49 28 68 19 19 42 28 68 28 27 0 49-9 68-28 19-19 28-42 28-68 0-27-9-49-28-68-19-19-41-28-68-28-26 0-49 9-68 28-19 19-28 41-28 68z"/>
<glyph unicode="&#57452;" d="M0 64c0-9 3-16 9-23 7-6 14-9 23-9l448 0c9 0 16 3 23 9 6 7 9 14 9 23l0 320c0 9-3 16-9 23-7 6-14 9-23 9l-96 0 0 32c0 9-3 16-9 23-7 6-14 9-23 9l-192 0c-9 0-16-3-23-9-6-7-9-14-9-23l0-32-96 0c-9 0-16-3-23-9-6-7-9-14-9-23z m64 32l0 256 128 0 0 64 128 0 0-64 128 0 0-256z m32 208c0-4 2-8 5-11 3-3 7-5 11-5 4 0 8 2 11 5 3 3 5 7 5 11 0 4-2 8-5 11-3 3-7 5-11 5-4 0-8-2-11-5-3-3-5-7-5-11z m64-80c0-27 9-49 28-68 19-19 42-28 68-28 27 0 49 9 68 28 19 19 28 41 28 68 0 26-9 49-28 68-19 19-41 28-68 28-26 0-49-9-68-28-19-19-28-42-28-68z m32 0c0 18 6 33 19 45 12 13 27 19 45 19 18 0 33-6 45-19 13-12 19-27 19-45 0-18-6-33-19-45-12-13-27-19-45-19-18 0-33 6-45 19-13 12-19 27-19 45z"/>
<glyph unicode="&#57453;" d="M0 32c0-9 3-16 9-23 7-6 14-9 23-9l448 0c9 0 16 3 23 9 6 7 9 14 9 23l0 352c0 9-3 16-9 23-7 6-14 9-23 9l-128 0 0 64c0 9-3 16-9 23-7 6-14 9-23 9l-128 0c-9 0-16-3-23-9-6-7-9-14-9-23l0-64-64 0 0 32-32 0 0-32-32 0c-9 0-16-3-23-9-6-7-9-14-9-23z m64 32l0 160 102 0c-4-11-6-21-6-32 0-27 9-49 28-68 19-19 42-28 68-28 27 0 49 9 68 28 19 19 28 41 28 68 0 10-2 21-6 32l102 0 0-160z m0 192l0 96 384 0 0-96-121 0c-13 14-28 23-45 28-18 5-35 5-52 0-18-5-33-14-45-28z m32 32l32 0 0 32-32 0z m64 0l32 0 0 32-32 0z m32-96c0 18 6 33 19 45 12 13 27 19 45 19 18 0 33-6 45-19 13-12 19-27 19-45 0-18-6-33-19-45-12-13-27-19-45-19-18 0-33 6-45 19-13 12-19 27-19 45z m32 224l0 32 64 0 0-32z m128-128l64 0 0 32-64 0z"/>
<glyph unicode="&#57454;" d="M64 320c0 35 9 67 26 96 17 30 40 53 70 70 29 17 61 26 96 26 35 0 67-9 96-26 30-17 53-40 70-70 17-29 26-61 26-96 0-15-4-32-11-51-7-20-16-39-27-59-11-20-24-40-37-60-14-21-28-40-41-58-14-17-27-33-38-47-11-14-20-25-27-33l-11-12c-3 3-6 7-11 12-4 6-13 16-27 33-13 16-26 32-38 48-12 16-25 35-40 56-15 22-28 42-38 61-11 19-20 39-27 59-7 19-11 36-11 51z m64 0c0-35 13-66 38-91 25-25 55-37 90-37 35 0 66 12 91 37 25 25 37 56 37 91 0 35-12 65-37 90-25 25-56 38-91 38-35 0-65-13-90-38-25-25-38-55-38-90z"/>
<glyph unicode="&#57455;" d="M64 320c0 35 9 67 26 96 17 30 40 53 70 70 29 17 61 26 96 26 35 0 67-9 96-26 30-17 53-40 70-70 17-29 26-61 26-96 0-15-4-32-11-51-7-20-16-39-27-59-11-20-24-40-37-60-14-21-28-40-41-58-14-17-27-33-38-47-11-14-20-25-27-33l-11-12c-3 3-6 7-11 12-4 6-13 16-27 33-13 16-26 32-38 48-12 16-25 35-40 56-15 22-28 42-38 61-11 19-20 39-27 59-7 19-11 36-11 51z m64 0c0-35 13-66 38-91 25-25 55-37 90-37 35 0 66 12 91 37 25 25 37 56 37 91 0 35-12 65-37 90-25 25-56 38-91 38-35 0-65-13-90-38-25-25-38-55-38-90z m64 0c0 18 6 33 19 45 12 13 27 19 45 19 18 0 33-6 45-19 13-12 19-27 19-45 0-18-6-33-19-45-12-13-27-19-45-19-18 0-33 6-45 19-13 12-19 27-19 45z"/>
<glyph unicode="&#57456;" d="M0 96c0-27 9-49 28-68 19-19 42-28 68-28l320 0c27 0 49 9 68 28 19 19 28 41 28 68l0 320c0 26-9 49-28 68-19 19-41 28-68 28l-18 0c20-22 34-47 42-75 5-6 8-13 8-21l0-320c0-9-3-16-9-23-7-6-14-9-23-9l-320 0c-9 0-16 3-23 9-6 7-9 14-9 23l0 320c0 8 3 15 9 21 8 28 21 53 41 75l-18 0c-26 0-49-9-68-28-19-19-28-42-28-68z m128 288c0-13 4-31 13-53 9-23 20-45 32-68 13-23 25-44 38-65 12-21 23-38 32-51l13-19c4 5 8 12 14 20 6 9 16 25 31 49 14 24 27 46 38 67 12 21 22 43 31 66 9 23 14 41 14 54 0 35-12 65-37 90-25 25-56 38-91 38-35 0-65-13-90-38-25-25-38-55-38-90z m64 0c0 18 6 33 19 45 12 13 27 19 45 19 18 0 33-6 45-19 13-12 19-27 19-45 0-18-6-33-19-45-12-13-27-19-45-19-18 0-33 6-45 19-13 12-19 27-19 45z"/>
<glyph unicode="&#57457;" d="M0 96c0-27 9-49 28-68 19-19 42-28 68-28l320 0c27 0 49 9 68 28 19 19 28 41 28 68l0 320c0 26-9 49-28 68-19 19-41 28-68 28l-320 0c-26 0-49-9-68-28-19-19-28-42-28-68z m64 0l0 320c0 9 3 16 9 23 7 6 14 9 23 9l320 0c9 0 16-3 23-9 6-7 9-14 9-23l0-320c0-9-3-16-9-23-7-6-14-9-23-9l-320 0c-9 0-16 3-23 9-6 7-9 14-9 23z m32 0l32 0 0 32-32 0z m0 64l32 0 0 32-32 0z m0 192l32 0 0 32-32 0z m32-224l32 0 0 32-32 0z m0 160l32 0 0 32-32 0z m32-192l32 0 0 32-32 0z m0 64l32 0 0 32-32 0z m0 224l32 0 0 32-32 0z m32-128l32 0 0 32-32 0z m32-128l32 0 0 32-32 0z m32 128l32 0 0 32-32 0z m32-128l32 0 0 32-32 0z m0 192l32 0 0 32-32 0z m64-160l32 0 0 32-32 0z m0 128l32 0 0 32-32 0z m32-64l32 0 0 32-32 0z"/>
<glyph unicode="&#57458;" d="M0 96c0-9 3-16 9-23 7-6 14-9 23-9l96 0 0 32-16 0c-4 0-8 2-11 5-3 3-5 7-5 11 0 4 2 8 5 11 3 3 7 5 11 5l64 0c4 0 8-2 11-5 3-3 5-7 5-11 0-4-2-8-5-11-3-3-7-5-11-5l-16 0 0-32 192 0 0 32-16 0c-4 0-8 2-11 5-3 3-5 7-5 11 0 4 2 8 5 11 3 3 7 5 11 5l64 0c4 0 8-2 11-5 3-3 5-7 5-11 0-4-2-8-5-11-3-3-7-5-11-5l-16 0 0-32 96 0c9 0 16 3 23 9 6 7 9 14 9 23l0 320c0 9-3 16-9 23-7 6-14 9-23 9l-448 0c-9 0-16-3-23-9-6-7-9-14-9-23z m64 64l0 224 224 0 0-224z m49 32l127 0c-12 16-28 26-48 30l0 5c10 4 17 10 23 18 6 8 9 17 9 27l0 32c0 13-5 25-14 34-9 9-21 14-34 14-13 0-25-5-34-14-9-9-14-21-14-34l0-32c0-10 3-19 9-27 6-8 14-14 23-18l0-5c-20-4-35-14-47-30z m207-32l0 32 32 0 0-32z m0 64l0 32 160 0 0-32z m0 64l0 32 64 0 0-32z m0 64l0 32 96 0 0-32z m96-64l0 32 64 0 0-32z m32 64l0 32 32 0 0-32z"/>
<glyph unicode="&#57459;" d="M0 192c0-27 9-49 28-68 19-19 42-28 68-28l288 0c27 0 49 9 68 28 19 19 28 41 28 68l32 0 0 128-32 0c0 26-9 49-28 68-19 19-41 28-68 28l-288 0c-26 0-49-9-68-28-19-19-28-42-28-68z m64 0l0 128c0 9 3 16 9 23 7 6 14 9 23 9l288 0c9 0 16-3 23-9 6-7 9-14 9-23l0-128c0-9-3-16-9-23-7-6-14-9-23-9l-288 0c-9 0-16 3-23 9-6 7-9 14-9 23z m32 0l32 0 0 128-32 0z m64 0l32 0 0 128-32 0z m64 0l32 0 0 128-32 0z"/>
<glyph unicode="&#57460;" d="M0 192c0-27 9-49 28-68 19-19 42-28 68-28l288 0c27 0 49 9 68 28 19 19 28 41 28 68l32 0 0 128-32 0c0 26-9 49-28 68-19 19-41 28-68 28l-288 0c-26 0-49-9-68-28-19-19-28-42-28-68z m64 0l0 128c0 9 3 16 9 23 7 6 14 9 23 9l288 0c9 0 16-3 23-9 6-7 9-14 9-23l0-128c0-9-3-16-9-23-7-6-14-9-23-9l-288 0c-9 0-16 3-23 9-6 7-9 14-9 23z m32 0l32 0 0 128-32 0z m64 0l32 0 0 128-32 0z"/>
<glyph unicode="&#57461;" d="M0 192c0-27 9-49 28-68 19-19 42-28 68-28l288 0c27 0 49 9 68 28 19 19 28 41 28 68l32 0 0 128-32 0c0 26-9 49-28 68-19 19-41 28-68 28l-288 0c-26 0-49-9-68-28-19-19-28-42-28-68z m64 0l0 128c0 9 3 16 9 23 7 6 14 9 23 9l288 0c9 0 16-3 23-9 6-7 9-14 9-23l0-128c0-9-3-16-9-23-7-6-14-9-23-9l-288 0c-9 0-16 3-23 9-6 7-9 14-9 23z m32 0l32 0 0 128-32 0z"/>
<glyph unicode="&#57462;" d="M0 192c0-27 9-49 28-68 19-19 42-28 68-28l288 0c27 0 49 9 68 28 19 19 28 41 28 68l32 0 0 128-32 0c0 26-9 49-28 68-19 19-41 28-68 28l-288 0c-26 0-49-9-68-28-19-19-28-42-28-68z m64 0l0 128c0 9 3 16 9 23 7 6 14 9 23 9l288 0c9 0 16-3 23-9 6-7 9-14 9-23l0-128c0-9-3-16-9-23-7-6-14-9-23-9l-288 0c-9 0-16 3-23 9-6 7-9 14-9 23z"/>
<glyph unicode="&#57463;" d="M0 193c0-27 9-49 28-68 19-19 42-28 68-28l132 0-7-33 24 33 139 0c27 0 49 9 68 28 19 19 28 41 28 68l32 0 0 128-32 0c0 26-9 49-28 68-19 19-41 28-68 28l-102 0 6 30-22-30-170 0c-26 0-49-9-68-28-19-19-28-42-28-68z m64 0l0 128c0 9 3 16 9 23 7 6 14 9 23 9l123 0-93-127 130 0-14-65-146 0c-9 0-16 3-23 9-6 7-9 14-9 23z m192 96l13 64 115 0c9 0 16-3 23-9 6-7 9-14 9-23l0-128c0-9-3-16-9-23-7-6-14-9-23-9l-92 0 94 128z"/>
<glyph unicode="&#57464;" d="M0 256c0 35 7 68 20 99 14 32 32 59 55 82 23 23 50 41 82 55 31 13 64 20 99 20 35 0 68-7 100-20 31-14 58-32 81-55 23-23 41-50 55-81 13-32 20-65 20-100 0-35-7-68-20-99-14-32-32-59-55-82-23-23-50-41-81-55-32-13-65-20-100-20-35 0-68 7-99 20-32 14-59 32-82 55-23 23-41 50-55 82-13 31-20 64-20 99z m64 0c0-35 9-67 26-96 17-30 40-53 70-70 29-17 61-26 96-26 35 0 67 9 96 26 30 17 53 40 70 70 17 29 26 61 26 96 0 35-9 67-26 96-17 30-40 53-70 70-29 17-61 26-96 26-35 0-67-9-96-26-30-17-53-40-70-70-17-29-26-61-26-96z m160 0l0 96c0 9 3 16 9 23 7 6 14 9 23 9 9 0 16-3 23-9 6-7 9-14 9-23l0-64 64 0c9 0 16-3 23-9 6-7 9-14 9-23 0-9-3-16-9-23-7-6-14-9-23-9l-96 0c-9 0-16 3-23 9-6 7-9 14-9 23z"/>
<glyph unicode="&#57465;" d="M0 256c0-35 7-68 20-99 14-32 32-59 55-82 23-23 50-41 82-55 31-13 64-20 99-20 35 0 68 7 100 20 31 14 58 32 81 55 23 23 41 50 55 82 13 31 20 64 20 99 0 35-7 68-20 100-14 31-32 58-55 81-23 23-50 41-81 55-32 13-65 20-100 20-35 0-68-7-99-20-32-14-59-32-82-55-23-23-41-50-55-82-13-31-20-64-20-99z m68 35c5 29 17 56 34 80 18 24 40 43 67 56 27 14 56 21 87 21 42 0 79-12 112-37 33-24 56-56 69-95-5-14-12-27-22-37-13-13-27-21-44-25-16-5-33-5-49 0-17 4-31 12-43 25-19 19-41 32-66 39-25 8-51 9-76 4-26-4-49-15-69-31z m7-96c5 15 12 28 23 38 18 19 41 28 68 28 26 0 49-9 68-28 18-18 40-32 65-39 25-8 51-9 76-4 26 4 49 15 70 31-6-30-18-56-35-80-18-24-40-43-67-56-27-14-56-21-87-21-42 0-79 12-112 37-33 24-56 56-69 94z"/>
<glyph unicode="&#57466;" d="M0 256c0-35 7-68 20-99 14-32 32-59 55-82 23-23 50-41 82-55 31-13 64-20 99-20 35 0 68 7 100 20 31 14 58 32 81 55 23 23 41 50 55 82 13 31 20 64 20 99 0 35-7 68-20 100-14 31-32 58-55 81-23 23-50 41-81 55-32 13-65 20-100 20-35 0-68-7-99-20-32-14-59-32-82-55-23-23-41-50-55-82-13-31-20-64-20-99z m64 0c0 35 9 67 26 96 17 30 40 53 70 70 29 17 61 26 96 26 35 0 67-9 96-26 30-17 53-40 70-70 17-29 26-61 26-96 0-21-4-42-12-64l-360 0c-8 22-12 44-12 64z m50-128l284 0c-18-20-39-36-64-47-24-11-50-17-78-17-28 0-54 6-78 17-25 11-46 27-64 47z"/>
<glyph unicode="&#57467;" d="M0 256c0-35 7-68 20-99 14-32 32-59 55-82 23-23 50-41 82-55 31-13 64-20 99-20 35 0 68 7 100 20 31 14 58 32 81 55 23 23 41 50 55 82 13 31 20 64 20 99 0 35-7 68-20 100-14 31-32 58-55 81-23 23-50 41-81 55-32 13-65 20-100 20-35 0-68-7-99-20-32-14-59-32-82-55-23-23-41-50-55-82-13-31-20-64-20-99z m64 0c0 40 12 77 36 111l267-267c-34-24-71-36-111-36-35 0-67 9-96 26-30 17-53 40-70 70-17 29-26 61-26 96z m81 156c34 24 71 36 111 36 35 0 67-9 96-26 30-17 53-40 70-70 17-29 26-61 26-96 0-40-12-77-36-111z"/>
<glyph unicode="&#57468;" d="M0 304c0 28 6 55 17 81 11 25 25 48 44 66 18 19 41 33 66 44 26 11 53 17 81 17 29 0 56-6 81-17 26-11 48-25 67-44 18-18 33-41 44-66 11-26 17-53 17-81 0-39-11-75-32-109l113-113c9-9 14-21 14-34 0-13-5-25-14-34-9-9-21-14-34-14-13 0-25 5-34 14l-113 113c-34-21-70-32-109-32-28 0-55 6-81 17-25 11-48 26-66 44-19 19-33 41-44 67-11 25-17 52-17 81z m64 0c0-26 6-51 19-73 13-22 31-39 53-52 22-13 46-20 72-20 20 0 39 4 56 12 18 7 33 18 46 31 13 13 24 28 31 46 8 17 12 36 12 56 0 19-4 38-12 56-7 18-18 33-31 46-13 13-28 23-46 31-17 7-36 11-56 11-26 0-50-6-72-19-22-13-40-31-53-53-13-22-19-46-19-72z"/>
<glyph unicode="&#57469;" d="M0 304c0-29 6-56 17-81 11-26 25-48 44-67 18-18 41-33 66-44 26-11 53-17 81-17 39 0 75 11 109 32l113-113c9-9 21-14 34-14 13 0 25 5 34 14 9 9 14 21 14 34 0 13-5 25-14 34l-113 113c21 34 32 70 32 109 0 28-6 55-17 81-11 25-26 48-44 66-19 19-41 33-67 44-25 11-52 17-81 17-28 0-55-6-81-17-25-11-48-25-66-44-19-18-33-41-44-66-11-26-17-53-17-81z m64 0c0 26 6 50 19 72 13 22 31 40 53 53 22 13 46 19 72 19 20 0 39-4 56-11 18-8 33-18 46-31 13-13 24-28 31-46 8-18 12-37 12-56 0-20-4-39-12-56-7-18-18-33-31-46-13-13-28-24-46-31-17-8-36-12-56-12-26 0-50 7-72 20-22 13-40 30-53 52-13 22-19 47-19 73z m64-16l64 0 0-64 33 0 0 64 64 0 0 32-64 0 0 64-33 0 0-64-64 0z"/>
<glyph unicode="&#57470;" d="M0 304c0-29 6-56 17-81 11-26 25-48 44-67 18-18 41-33 66-44 26-11 53-17 81-17 39 0 75 11 109 32l113-113c9-9 21-14 34-14 13 0 25 5 34 14 9 9 14 21 14 34 0 13-5 25-14 34l-113 113c21 34 32 70 32 109 0 28-6 55-17 81-11 25-26 48-44 66-19 19-41 33-67 44-25 11-52 17-81 17-28 0-55-6-81-17-25-11-48-25-66-44-19-18-33-41-44-66-11-26-17-53-17-81z m64 0c0 26 6 50 19 72 13 22 31 40 53 53 22 13 46 19 72 19 20 0 39-4 56-11 18-8 33-18 46-31 13-13 24-28 31-46 8-18 12-37 12-56 0-20-4-39-12-56-7-18-18-33-31-46-13-13-28-24-46-31-17-8-36-12-56-12-26 0-50 7-72 20-22 13-40 30-53 52-13 22-19 47-19 73z m64-16l161 0 0 32-161 0z"/>
<glyph unicode="&#57471;" d="M0 287c0-30 6-59 18-87 12-27 28-51 48-71 20-20 44-36 71-48 28-12 57-18 88-18 43 0 83 12 120 36l85-85c9-9 21-14 34-14 13 0 25 5 34 14 9 9 14 21 14 34 0 13-5 25-14 34l-85 85c24 37 36 77 36 120 0 31-6 60-18 88-12 27-28 51-48 71-20 20-44 36-71 48-28 12-57 18-87 18-31 0-60-6-88-18-27-12-51-28-71-48-20-20-36-44-48-71-12-28-18-57-18-88z m64 0c0 30 7 57 22 81 14 25 33 44 58 58 24 15 51 22 81 22 29 0 55-7 80-22 24-14 44-33 58-58 15-24 22-51 22-81 0-29-7-55-22-80-14-24-34-44-58-58-25-15-51-22-80-22-30 0-57 7-81 22-25 14-44 34-58 58-15 25-22 51-22 80z"/>
<glyph unicode="&#57472;" d="M0 256c1-1 1-3 2-6 1-2 4-7 8-14 4-7 9-15 14-22 5-7 11-15 20-25 8-9 17-18 26-26 10-9 21-17 34-25 14-9 28-16 42-22 15-6 32-11 51-14 19-4 39-6 59-6 21 0 40 2 59 5 19 4 36 9 51 15 15 6 29 13 42 21 13 8 24 17 34 26 9 9 18 17 26 26 8 9 15 17 20 25 6 8 10 16 14 22 3 6 6 11 8 14l2 6c0 1-1 3-2 6-1 2-4 7-8 14-4 7-9 15-14 22-5 7-11 15-19 25-9 9-18 18-27 26-10 9-21 17-34 25-14 9-28 16-42 22-15 6-32 11-51 14-19 4-38 6-59 6-20 0-40-2-59-6-19-3-36-8-51-14-15-6-29-14-42-22-13-8-24-16-34-25-9-9-18-17-26-26-8-9-15-18-20-26-6-8-10-15-14-21-3-6-6-11-7-15z m160 0c0 26 9 49 28 68 19 19 42 28 68 28 27 0 49-9 68-28 19-19 28-42 28-68 0-27-9-49-28-68-19-19-41-28-68-28-26 0-49 9-68 28-19 19-28 41-28 68z m32 0c0-18 6-33 19-45 12-13 27-19 45-19 18 0 33 6 45 19 13 12 19 27 19 45 0 18-6 33-19 45-12 13-27 19-45 19-18 0-33-6-45-19l45-45z"/>
<glyph unicode="&#57473;" d="M0 256c1-2 2-4 3-8 1-3 4-10 9-20 5-10 11-20 16-30 6-10 13-22 22-35 9-14 18-26 28-38 10-11 21-23 35-35 13-12 27-22 41-30 14-8 30-15 48-20 17-5 36-8 54-8 24 0 46 4 69 12 22 9 41 19 58 32 16 14 32 28 46 44 15 16 27 32 37 48 10 16 18 30 25 43 7 14 13 24 16 32l5 13c-1 2-2 4-3 8-1 3-4 10-9 20-5 10-10 20-16 30-5 10-13 22-22 35-9 14-18 26-28 38-10 11-21 23-35 35-13 12-27 22-41 30-14 8-30 15-48 20-17 5-35 8-54 8-23 0-46-4-68-12-23-9-42-19-59-33-16-13-32-27-46-43-15-16-27-32-37-48-10-16-18-30-25-44-7-13-13-23-16-32z m96 0c0 29 7 56 22 80 14 25 33 44 58 59 24 14 51 21 80 21 22 0 42-4 62-13 20-8 37-19 51-34 15-14 26-31 34-51 9-20 13-40 13-62 0-29-7-56-21-80-15-25-34-44-59-59-24-14-51-21-80-21-22 0-42 4-62 13-20 8-37 20-51 34-14 14-26 31-34 51-9 20-13 40-13 62z m64 0c0-27 9-49 28-68 19-19 42-28 68-28 27 0 49 9 68 28 19 19 28 41 28 68 0 26-9 49-28 68-19 19-41 28-68 28-10 0-21-2-32-6l0-58-58 0c-4-11-6-21-6-32z"/>
<glyph unicode="&#57474;" d="M140 224l46-46c19 19 43 28 70 28 27 0 51-9 70-28l46 46c-21 21-45 35-74 43-28 7-56 7-84 0-29-8-53-22-74-43z m50-116c0-18 7-34 20-47 12-13 28-19 46-19 18 0 34 6 47 19 12 13 19 29 19 47 0 18-7 34-19 46-13 13-29 20-47 20-18 0-34-7-46-20-13-12-20-28-20-46z"/>
<glyph unicode="&#57475;" d="M70 294l47-47c25 26 54 43 88 52 34 9 68 9 102 0 34-9 63-26 89-52l46 47c-25 25-54 45-87 58-33 13-66 19-99 19-33 0-66-6-99-19-33-13-62-33-87-58z m70-70l46-46c19 19 43 28 70 28 27 0 51-9 70-28l46 46c-21 21-45 35-74 43-28 7-56 7-84 0-29-8-53-22-74-43z m50-116c0-18 7-34 20-47 12-13 28-19 46-19 18 0 34 6 47 19 12 13 19 29 19 47 0 18-7 34-19 46-13 13-29 20-47 20-18 0-34-7-46-20-13-12-20-28-20-46z"/>
<glyph unicode="&#57476;" d="M0 364l47-47c28 29 61 50 98 65 37 15 74 22 111 22 37 0 74-7 111-22 37-15 70-36 99-65l46 47c-28 28-59 50-94 68-34 17-70 29-107 34-37 5-73 5-110 0-37-5-73-17-107-34-35-18-66-40-94-68z m70-70l47-47c25 26 54 43 88 52 34 9 68 9 102 0 34-9 63-26 89-52l46 47c-25 25-54 45-87 58-33 13-66 19-99 19-33 0-66-6-99-19-33-13-62-33-87-58z m70-70l46-46c19 19 43 28 70 28 27 0 51-9 70-28l46 46c-21 21-45 35-74 43-28 7-56 7-84 0-29-8-53-22-74-43z m50-116c0-18 7-33 20-46 12-13 28-20 46-20 18 0 34 7 47 19 12 13 19 29 19 47 0 18-7 34-19 46-13 13-29 20-47 20-18 0-34-6-46-19-13-13-20-29-20-47z"/>
<glyph unicode="&#57477;" d="M0 96l0 320c0 26 9 49 28 68 19 19 42 28 68 28l320 0c27 0 49-9 68-28 19-19 28-42 28-68l0-320c0-27-9-49-28-68-19-19-41-28-68-28l-320 0c-26 0-49 9-68 28-19 19-28 41-28 68z m64 0c0-9 3-16 9-23 7-6 14-9 23-9l320 0c9 0 16 3 23 9 6 7 9 14 9 23l0 320c0 9-3 16-9 23-7 6-14 9-23 9l-192 0 0-115 76-75 24 24c5 5 11 8 18 9 7 1 14 1 20-2 6-2 11-6 15-11 5-6 7-12 7-18l0-91c0-9-4-18-13-27-8-9-16-14-24-14l-91 0c-7 0-13 2-18 7-5 4-9 10-11 16-3 7-3 14-2 21 1 7 4 13 9 18l21 22-76 76-115 0z m0 288c0-9 3-16 9-23 7-6 14-9 23-9l32 0c9 0 16 3 23 9 6 7 9 14 9 23l0 32c0 9-3 16-9 23-7 6-14 9-23 9l-32 0c-9 0-16-3-23-9-6-7-9-14-9-23z"/>
<glyph unicode="&#57478;" d="M0 96l0 320c0 26 9 49 28 68 19 19 42 28 68 28l320 0c27 0 49-9 68-28 19-19 28-42 28-68l0-320c0-27-9-49-28-68-19-19-41-28-68-28l-320 0c-26 0-49 9-68 28-19 19-28 41-28 68z m64 0c0-9 3-16 9-23 7-6 14-9 23-9l308 0-62 61-24-24c-5-4-11-7-18-8-8-1-14 0-21 2-6 2-12 6-16 11-5 6-7 12-7 18l0 91c0 8 5 17 15 27 9 9 18 14 27 14l90 0c7 0 13-2 18-7 5-5 9-11 11-18 3-6 3-13 2-21-1-7-4-13-8-18l-23-22 60-60 0 306c0 9-3 16-9 23-7 6-14 9-23 9l-192 0 0-64c0-27-9-49-28-68-19-19-41-28-68-28l-64 0z m0 288c0-9 3-16 9-23 7-6 14-9 23-9l32 0c9 0 16 3 23 9 6 7 9 14 9 23l0 32c0 9-3 16-9 23-7 6-14 9-23 9l-32 0c-9 0-16-3-23-9-6-7-9-14-9-23z"/>
<glyph unicode="&#57479;" d="M0 96c0-27 9-49 28-68 19-19 42-28 68-28l320 0c27 0 49 9 68 28 19 19 28 41 28 68l0 320c0 26-9 49-28 68-19 19-41 28-68 28l-320 0c-26 0-49-9-68-28-19-19-28-42-28-68z m64 0l0 320c0 9 3 16 9 23 7 6 14 9 23 9l320 0c9 0 16-3 23-9 6-7 9-14 9-23l0-320c0-9-3-16-9-23-7-6-14-9-23-9l-320 0c-9 0-16 3-23 9-6 7-9 14-9 23z m32 32c0-9 3-16 9-23 7-6 14-9 23-9l96 0-128 128z m0 160l128 128-96 0c-9 0-16-3-23-9-6-7-9-14-9-23z m192-192l96 0c9 0 16 3 23 9 6 7 9 14 9 23l0 96z m0 320l128-128 0 96c0 9-3 16-9 23-7 6-14 9-23 9z"/>
<glyph unicode="&#57480;" d="M0 96c0-27 9-49 28-68 19-19 42-28 68-28l320 0c27 0 49 9 68 28 19 19 28 41 28 68l0 320c0 26-9 49-28 68-19 19-41 28-68 28l-320 0c-26 0-49-9-68-28-19-19-28-42-28-68z m64 0l0 320c0 9 3 16 9 23 7 6 14 9 23 9l320 0c9 0 16-3 23-9 6-7 9-14 9-23l0-320c0-9-3-16-9-23-7-6-14-9-23-9l-320 0c-9 0-16 3-23 9-6 7-9 14-9 23z m32 128l128-128 0 96c0 9-3 16-9 23-7 6-14 9-23 9z m0 64l96 0c9 0 16 3 23 9 6 7 9 14 9 23l0 96z m192-192l128 128-96 0c-9 0-16-3-23-9-6-7-9-14-9-23z m0 224c0-9 3-16 9-23 7-6 14-9 23-9l96 0-128 128z"/>
<glyph unicode="&#57481;" d="M0 32l0 96c0 7 2 13 6 18 4 6 8 9 14 12 5 2 11 3 18 2 6-1 12-4 17-9l25-26 90 90c4 4 8 7 13 8 5 2 9 2 13 1 5-1 9-3 13-5 4-3 7-6 9-10 3-4 5-8 6-12 1-5 1-9-1-14-1-5-4-9-8-13l-90-90 26-25c5-5 8-11 9-17 1-7 0-13-2-18-3-6-7-10-12-14-5-4-11-6-18-6l-96 0c-9 0-16 3-23 10-6 6-9 13-9 22z m0 352l0 96c0 9 3 16 9 23 7 6 14 9 23 9l96 0c7 0 13-2 19-6 5-4 9-9 11-14 2-6 2-11 1-18-1-6-4-12-8-17l-26-25 90-89c4-4 7-8 8-13 2-5 2-10 1-14-1-4-3-9-6-13-2-4-5-7-9-9-4-3-8-4-13-5-4-1-8-1-13 0-5 2-9 4-13 8l-90 90-25-26c-5-5-11-8-17-9-7-1-13 0-18 2-6 3-10 7-14 12-4 5-6 11-6 18z m289-68c-1 4-1 9 0 13 2 5 5 10 9 14l89 89-25 25c-5 5-8 11-9 18-1 6-1 12 2 18 2 5 6 10 11 14 5 3 11 5 18 5l96 0c9 0 16-3 23-9 6-6 9-14 9-23l0-96c0-7-2-13-6-18-4-5-8-9-14-11-5-3-11-3-17-2-7 1-13 4-17 9l-26 25-89-89c-4-4-9-7-13-9-5-1-10-1-14 0-5 1-9 2-13 5-4 2-7 5-9 9-3 4-4 9-5 13z m0-131c-2 6-1 11 1 16 1 5 4 9 8 13 4 4 8 7 13 9 5 2 11 2 16 1 6-1 11-4 16-9l89-90 26 26c4 5 10 8 17 9 6 1 12 0 17-2 6-3 10-6 14-12 4-5 6-11 6-18l0-96c0-9-3-16-9-23-7-6-14-9-23-9l-96 0c-7 0-13 2-18 6-6 4-10 8-12 14-2 5-2 11-1 18 1 6 4 12 9 17l25 25-89 89c-5 5-8 10-9 16z"/>
<glyph unicode="&#57482;" d="M0 32l0 96c0 7 2 13 6 18 4 5 8 9 14 11 5 3 11 3 18 2 6-1 12-3 17-8l25-26 90 90c4 4 8 6 13 8 5 1 9 2 13 1 5-1 9-3 13-5 4-3 7-6 9-10 3-4 5-8 6-13 1-4 1-8-1-13-1-5-4-10-8-14l-90-89 26-25c5-5 8-11 9-18 1-6 0-12-2-18-3-5-7-10-12-13-5-4-11-6-18-6l-96 0c-9 0-16 3-23 9-6 7-9 14-9 23z m289 284c-1 4-1 8 0 13 2 5 5 9 9 13l89 90-25 25c-5 5-8 11-9 17-1 7-1 13 2 18 2 6 6 11 11 14 5 4 11 6 18 6l96 0c9 0 16-3 23-9 6-7 9-14 9-23l0-96c0-7-2-13-6-18-4-5-8-9-14-12-5-2-11-3-17-2-7 1-13 4-17 9l-26 26-89-90c-4-4-9-6-13-8-5-1-10-2-14-1-5 1-9 3-13 6-4 2-7 5-9 9-3 4-4 8-5 13z"/>
<glyph unicode="&#57483;" d="M0 35c1 7 4 14 10 19l89 90-25 25c-5 5-8 11-9 17-1 7-1 13 2 18 2 6 6 10 11 14 5 4 11 6 18 6l96 0c9 0 16-3 23-10 6-6 9-13 9-22l0-96c0-7-2-13-6-18-4-6-8-9-14-12-5-2-11-3-17-2-7 1-13 4-17 9l-26 25-89-89c-6-6-12-9-19-10-7 0-13 1-18 5-6 3-10 8-14 13-3 5-5 11-4 18z m1 438c-2 5-1 11 1 16 1 5 4 9 8 13 4 4 8 7 13 8 5 2 11 3 16 1 6-1 11-4 16-8l89-90 26 25c6 6 13 10 22 10 8 0 16-2 22-8 7-6 10-14 10-24l0-96c0-9-3-16-9-23-7-6-14-9-23-9l-96 0c-7 0-13 2-18 6-6 4-10 8-12 14-2 5-2 11-1 18 1 6 4 12 9 16l25 26-89 89c-5 5-8 10-9 16z m287-377l0 96c0 9 3 16 9 22 7 7 14 10 23 10l96 0c7 0 13-2 19-6 5-4 9-9 11-14 2-6 2-12 1-18-1-7-4-12-8-17l-26-25 90-90c4-4 7-8 8-13 2-5 2-9 1-14-1-4-3-8-6-12-2-4-5-7-9-10-4-2-8-4-13-5-4-1-8-1-13 1-5 1-9 4-13 8l-90 89-25-25c-6-6-14-9-22-9-9-1-17 2-23 8-7 6-10 14-10 24z m0 224l0 96c0 7 2 14 6 19 4 6 9 9 15 11 5 2 11 2 18 1 6-1 11-4 16-9l25-25 90 89c4 4 8 7 13 9 5 1 9 2 13 0 5-1 9-2 13-5 4-2 7-5 9-9 3-4 5-8 6-13 1-4 1-9-1-14-1-4-4-9-8-13l-90-89 26-26c5-5 8-10 9-17 1-6 0-12-2-18-3-5-7-10-12-14-5-3-11-5-18-5l-96 0c-9 0-16 3-23 9-6 6-9 14-9 23z"/>
<glyph unicode="&#57484;" d="M0 96l0 320c0 26 9 49 28 68 19 19 42 28 68 28l320 0c27 0 49-9 68-28 19-19 28-42 28-68l0-320c0-27-9-49-28-68-19-19-41-28-68-28l-320 0c-26 0-49 9-68 28-19 19-28 41-28 68z m64 0c0-9 3-16 9-23 7-6 14-9 23-9l320 0c9 0 16 3 23 9 6 7 9 14 9 23l0 320c0 9-3 16-9 23-7 6-14 9-23 9l-320 0c-9 0-16-3-23-9-6-7-9-14-9-23z m32 160l0 32 320 0 0-32z m0 64l0 32 320 0 0-32z m0 64l0 32 320 0 0-32z m65-198c-1 7-1 13 2 18 2 6 6 11 11 14 5 4 11 6 18 6l128 0c7 0 13-2 19-6 5-4 9-9 11-14 2-6 2-11 1-18-1-6-4-12-8-17l-64-64c-6-6-14-9-23-9-9 0-16 3-22 9l-64 64c-5 5-8 11-9 17z"/>
<glyph unicode="&#57485;" d="M0 96l0 320c0 26 9 49 28 68 19 19 42 28 68 28l320 0c27 0 49-9 68-28 19-19 28-42 28-68l0-320c0-27-9-49-28-68-19-19-41-28-68-28l-320 0c-26 0-49 9-68 28-19 19-28 41-28 68z m64 0c0-9 3-16 9-23 7-6 14-9 23-9l320 0c9 0 16 3 23 9 6 7 9 14 9 23l0 320c0 9-3 16-9 23-7 6-14 9-23 9l-320 0c-9 0-16-3-23-9-6-7-9-14-9-23z m32 160l0 32 320 0 0-32z m0 64l0 32 320 0 0-32z m0 64l0 32 320 0 0-32z m65-250c1 7 4 12 9 17l64 64c6 6 13 9 22 9 9 0 17-3 23-9l64-64c5-5 8-11 9-18 1-6 0-12-2-18-3-5-7-10-12-13-5-4-11-6-18-6l-128 0c-7 0-13 2-18 6-6 4-10 9-12 14-2 6-2 12-1 18z"/>
<glyph unicode="&#57486;" d="M0 96c0-27 9-49 28-68 19-19 42-28 68-28l320 0c27 0 49 9 68 28 19 19 28 41 28 68l0 320c0 26-9 49-28 68-19 19-41 28-68 28l-320 0c-26 0-49-9-68-28-19-19-28-42-28-68z m64 0l0 320c0 9 3 16 9 23 7 6 14 9 23 9l320 0c9 0 16-3 23-9 6-7 9-14 9-23l0-320c0-9-3-16-9-23-7-6-14-9-23-9l-320 0c-9 0-16 3-23 9-6 7-9 14-9 23z m64 32l256 0 0 64-256 0z m0 96l256 0 0 64-256 0z m0 96l256 0 0 64-256 0z"/>
<glyph unicode="&#57487;" d="M128 128l256 0 0 64-256 0z m0 96l256 0 0 64-256 0z m0 96l256 0 0 64-256 0z"/>
<glyph unicode="&#57488;" d="M0 320l0 192 192 0c27 0 49-9 68-28l224-224c19-19 28-41 28-68 0-26-9-49-28-68l-96-96c-19-19-41-28-68-28-26 0-49 9-68 28l-224 224c-19 19-28 42-28 68z m64 0c0-9 3-16 10-23l224-224c6-6 13-9 22-9 9 0 17 3 23 9l96 96c6 7 9 14 9 23 0 9-3 17-9 23l-224 224c-6 6-14 9-23 9l-128 0z m32 64c0 9 3 16 9 23 7 6 14 9 23 9 9 0 16-3 23-9 6-7 9-14 9-23 0-9-3-16-9-23-7-6-14-9-23-9-9 0-16 3-23 9-6 7-9 14-9 23z"/>
<glyph unicode="&#57489;" d="M0 255l166 161 250 0c27 0 49-9 68-28 19-19 28-42 28-68l0-128c0-27-9-49-28-68-19-19-41-28-68-28l-250 0z m91 0l101-95 224 0c9 0 16 3 23 9 6 7 9 14 9 23l0 128c0 9-3 16-9 23-7 6-14 9-23 9l-224 0z m69 1c0 9 3 16 9 23 7 6 14 9 23 9 9 0 16-3 23-9 6-7 9-14 9-23 0-9-3-16-9-23-7-6-14-9-23-9-9 0-16 3-23 9-6 7-9 14-9 23z"/>
<glyph unicode="&#57490;" d="M0 400l0 48c0 18 6 33 19 45 12 13 27 19 45 19l64 0c18 0 33-6 45-19 13-12 19-27 19-45l64 0c27 0 49-9 68-28l160-160c19-19 28-41 28-68 0-26-9-49-28-68l-96-96c-19-19-41-28-68-28-26 0-49 9-68 28l-160 160c-19 19-28 42-28 68l0 192 96 0c0 9-3 16-9 23-7 6-14 9-23 9l-64 0c-9 0-16-3-23-9-6-7-9-14-9-23l0-48c0-7-3-11-8-14-5-2-11-2-16 0-5 3-8 7-8 14z m128-144c0-9 3-16 10-23l160-160c6-6 13-9 22-9 9 0 17 3 23 9l96 96c6 7 9 14 9 23 0 9-3 17-9 23l-160 160c-6 6-14 9-23 9l-16 0c11-15 16-31 16-48 0-12-2-23-6-33-4-10-10-18-16-24-7-7-15-12-24-16-9-4-18-6-27-7-9 0-19 1-28 3-10 3-19 7-27 13z m0 80c0-9 2-16 5-23 4-6 8-12 14-15 6-4 12-6 19-8 7-1 13-1 20 0 7 2 13 4 19 8 6 3 10 9 14 15 3 7 5 14 5 23 0 10-3 19-9 27-6 9-14 14-23 18l0-45c0-7-3-11-8-14-5-2-11-2-16 0-5 3-8 7-8 14l0 45c-9-4-17-9-23-18-6-8-9-17-9-27z"/>
<glyph unicode="&#57491;" d="M0 400c0-7 3-11 8-14 5-2 11-2 16 0 5 3 8 7 8 14l0 48c0 9 3 16 9 23 7 6 14 9 23 9l64 0c9 0 16-3 23-9 6-7 9-14 9-23l-96 0 0-192c0-26 9-49 28-68l160-160c19-19 42-28 68-28 27 0 49 9 68 28l96 96c19 19 28 42 28 68 0 27-9 49-28 68l-160 160c-19 19-41 28-68 28l-32 0 0-112c0-9-2-16-5-23-4-6-8-12-14-15-6-4-12-6-19-8-7-1-13-1-20 0-7 2-13 4-19 8-6 3-10 9-14 15-3 7-5 14-5 23 0 10 3 19 9 27 6 9 14 14 23 18l0-45c0-7 3-11 8-14 5-2 11-2 16 0 5 3 8 7 8 14l0 112c0 18-6 33-19 45-13 13-28 19-45 19l-64 0c-18 0-33-6-45-19-13-12-19-27-19-45z"/>
<glyph unicode="&#57492;" d="M0 256c0 30 6 58 17 85 12 27 28 51 47 70 20 20 43 36 70 47 27 12 56 17 86 17 29 0 58-5 85-17 27-11 50-27 70-47 19-19 35-43 46-70 12-27 18-55 18-85l37 0c7 0 14-2 20-7 6-4 11-9 13-16 3-6 3-13 2-20-1-8-4-14-10-20l-73-73c-7-7-16-11-26-11-10 0-18 4-25 11l-74 73c-5 6-9 12-10 20-1 7 0 14 2 20 3 7 7 12 13 16 6 5 13 7 21 7l37 0c0 26-7 51-20 73-13 23-31 41-53 54-23 13-47 19-73 19-27 0-51-6-74-19-22-13-40-31-53-54-13-22-20-47-20-73 0-27 7-51 20-73 13-23 31-41 53-54 23-13 47-19 74-19 18 0 36 3 53 10l55-54c-33-20-70-30-108-30-30 0-59 6-86 18-27 11-50 27-70 47-19 19-35 43-47 70-11 27-17 55-17 85z"/>
<glyph unicode="&#57493;" d="M0 160l0 128c0 27 9 49 28 68 19 19 42 28 68 28l128 0 0 32c0 7 2 13 6 18 4 6 9 10 14 12 6 2 11 2 18 1 6-1 12-4 17-8l64-64c6-7 9-15 9-23 0-9-3-16-9-23l-64-64c-5-5-11-8-17-9-7-1-13 0-18 2-6 3-11 7-14 12-4 5-6 11-6 18l0 32-128 0c-9 0-16-3-23-9-6-7-9-14-9-23l0-128c0-9 3-16 9-23 7-6 14-9 23-9l320 0c9 0 16 3 23 9 6 7 9 14 9 23l0 128c0 9-3 16-9 23-7 6-14 9-23 9l-6 0c8 21 8 43 0 64l6 0c27 0 49-9 68-28 19-19 28-41 28-68l0-128c0-26-9-49-28-68-19-18-41-28-68-28l-320 0c-26 0-49 10-68 28-19 19-28 42-28 68z"/>
<glyph unicode="&#57494;" d="M1 230c1 7 4 12 8 17l64 64c7 6 15 9 23 9 9 0 16-3 23-9l64-64c5-5 8-11 9-18 1-6 0-12-2-18-3-5-7-10-12-13-5-4-11-6-18-6l-32 0 0-32c0-9 3-16 9-23 7-6 14-9 23-9l192 0c9 0 17 3 23 10 22-11 45-13 69-5-7-20-18-37-35-50-16-12-35-19-57-19l-192 0c-26 0-49 10-68 28-19 19-28 42-28 68l0 32-32 0c-7 0-13 2-18 6-6 4-10 9-12 14-2 6-2 12-1 18z m68 149c6 20 17 37 34 50 16 13 36 19 57 19l192 0c27 0 49-9 68-28 19-19 28-42 28-68l0-32 32 0c7 0 13-2 19-6 5-4 9-9 11-14 2-6 2-11 1-18-1-6-4-12-8-17l-64-64c-7-6-15-9-23-9-9 0-16 3-23 9l-64 64c-5 5-8 11-9 17-1 7 0 13 2 18 3 6 7 11 12 14 5 4 11 6 18 6l32 0 0 32c0 9-3 16-9 23-7 6-14 9-23 9l-192 0c-9 0-17-3-23-10-22 11-45 13-68 5z"/>
<glyph unicode="&#57495;" d="M0 128c0-9 3-16 9-23 7-6 14-9 23-9l32 0c22 0 43 4 62 13 20 8 37 20 51 34 15 14 26 31 34 51 9 20 13 40 13 62 0 26 9 49 28 68 19 19 42 28 68 28l64 0 0-32c0-7 2-13 6-19 4-5 9-9 14-11 6-2 11-2 18-1 6 1 12 4 17 8l64 64c6 7 9 15 9 23 0 9-3 16-9 22l-64 64c-5 5-11 8-17 9-7 1-13 1-18-2-6-2-11-6-14-11-4-5-6-11-6-18l0-32-64 0c-22 0-42-4-62-13-20-8-37-20-51-34-14-14-26-31-34-51-9-20-13-40-13-62 0-27-9-49-28-68-19-19-41-28-68-28l-32 0c-9 0-16-3-23-9-6-7-9-14-9-23z m0 256c0-9 3-17 9-23 7-6 14-9 23-9l32 0c15 0 29-3 42-10 13-6 24-15 33-27 7 22 17 42 31 59-31 28-66 42-106 42l-32 0c-9 0-16-3-23-10-6-6-9-13-9-22z m214-247c30-28 66-41 106-41l64 0 0-32c0-7 2-13 6-19 4-5 9-9 14-11 6-2 11-3 18-2 6 1 12 4 17 9l64 64c6 7 9 14 9 23 0 9-3 16-9 22l-64 64c-5 5-11 8-17 9-7 1-13 1-18-2-6-2-11-6-14-11-4-6-6-12-6-18l0-32-64 0c-15 0-29 3-42 9-13 7-23 16-32 27-8-22-18-42-32-59z"/>
<glyph unicode="&#57496;" d="M0 160c0 9 3 16 10 22l64 64c5 5 10 8 17 9 6 1 12 1 18-2 5-2 10-6 13-11 4-5 6-11 6-18l0-32 288 0c9 0 16 3 23 9 6 7 9 14 9 23l0 128c0 9-3 16-9 23-7 6-14 9-23 9l-256 0c-8 0-14 2-20 7-5 4-9 9-10 16-1 6-1 12 0 18 1 7 5 12 10 16 6 5 12 7 20 7l256 0c27 0 49-9 68-28 19-19 28-42 28-68l0-128c0-27-9-49-28-68-19-19-41-28-68-28l-288 0 0-32c0-7-2-13-6-19-4-5-8-9-14-11-5-2-11-2-18-1-6 1-12 4-16 8l-64 64c-7 7-10 15-10 23z"/>
<glyph unicode="&#57497;" d="M1 422c1 6 4 12 8 17l64 64c7 6 15 9 23 9 9 0 16-3 23-9l64-64c5-5 8-11 9-18 1-6 0-12-2-18-3-5-7-10-12-13-5-4-11-6-18-6l-32 0 0-272c0-13 5-25 14-34 9-9 21-14 34-14 13 0 25 5 34 14 9 9 14 21 14 34l0 288c0 31 11 57 33 79 22 22 48 33 79 33 31 0 57-11 79-33 22-22 33-48 33-79l0-272 32 0c7 0 13-2 19-6 5-4 9-9 11-14 2-6 2-11 1-18-1-6-4-12-8-17l-64-64c-7-6-15-9-23-9-9 0-16 3-22 9l-64 64c-5 5-8 11-9 17-1 7-1 13 2 18 2 6 6 11 11 14 5 4 11 6 18 6l32 0 0 272c0 13-5 25-14 34-9 9-21 14-34 14-13 0-25-5-34-14-9-9-14-21-14-34l0-288c0-31-11-57-33-79-22-22-48-33-79-33-31 0-57 11-79 33-22 22-33 48-33 79l0 272-32 0c-7 0-13 2-18 6-6 4-10 8-12 14-2 5-2 11-1 18z"/>
<glyph unicode="&#57498;" d="M0 192c0-27 9-49 28-68 19-19 42-28 68-28l64-96 64 96 192 0c27 0 49 9 68 28 19 19 28 41 28 68l0 224c0 26-9 49-28 68-19 19-41 28-68 28l-320 0c-26 0-49-9-68-28-19-19-28-42-28-68z m64 0l0 224c0 9 3 16 9 23 7 6 14 9 23 9l320 0c9 0 16-3 23-9 6-7 9-14 9-23l0-224c0-9-3-16-9-23-7-6-14-9-23-9l-213 0-43-64-43 64-21 0c-9 0-16 3-23 9-6 7-9 14-9 23z"/>
<glyph unicode="&#57499;" d="M0 91c-1 6 0 12 2 17 3 6 7 11 12 14 5 4 11 6 18 6l32 0 0 64c0 26 9 49 28 68 18 19 41 28 68 28l192 0c8 0 16 3 22 9 7 7 10 14 10 23l0 160c0 9 3 16 9 23 7 6 14 9 23 9 9 0 16-3 23-9 6-7 9-14 9-23l0-160c0-27-9-49-28-68-19-19-42-28-68-28l-192 0c-9 0-17-3-23-9-6-7-9-14-9-23l0-64 32 0c7 0 13-2 19-6 5-4 9-9 11-14 2-6 2-11 1-18-1-6-4-12-8-17l-64-64c-7-6-15-9-23-9-9 0-17 3-23 9l-64 64c-5 5-8 11-9 18z m321-1c-1 7-1 13 2 18 2 6 6 11 11 14 5 4 11 6 18 6l32 0 0 68c16 4 29 8 38 13 8 6 17 15 26 27l0-108 32 0c7 0 13-2 19-6 5-4 9-9 11-14 2-6 2-12 1-18-1-7-4-12-8-17l-64-64c-7-6-15-9-23-9-9 0-16 3-22 9l-64 64c-5 5-8 11-9 17z"/>
<glyph unicode="&#57500;" d="M0 384l0 96c0 8 2 14 7 20 4 5 9 9 16 10 6 1 12 1 18 0 7-1 12-5 16-10 5-6 7-12 7-20l0-96c0-9 3-16 9-23 7-6 14-9 23-9l96 0c24 0 46-8 64-25 18 17 40 25 64 25l96 0c9 0 16 3 23 9 6 7 9 14 9 23l0 96c0 8 2 14 7 20 4 5 9 8 16 10 6 1 12 1 18 0 7-2 12-5 16-10 5-6 7-12 7-20l0-96c0-27-9-49-28-68-19-19-41-28-68-28l-96 0c-9 0-16-3-23-10-6-6-9-13-9-22l0-128 32 0c7 0 13-2 19-6 5-4 9-9 11-14 2-6 2-12 1-18-1-7-4-12-8-17l-64-64c-7-6-15-9-23-9-9 0-16 3-22 9l-64 64c-5 5-8 11-9 17-1 7-1 13 2 18 2 6 6 11 11 14 5 4 11 6 18 6l32 0 0 128c0 9-3 16-9 23-7 6-14 9-23 9l-96 0c-26 0-49 9-68 28-19 19-28 41-28 68z"/>
<glyph unicode="&#57501;" d="M0 32l0 128c0 9 3 16 9 23 7 6 14 9 23 9l128 0c9 0 16-3 23-9 6-7 9-14 9-23l0-128c0-9-3-16-9-23-7-6-14-9-23-9l-128 0c-9 0-16 3-23 9-6 7-9 14-9 23z m1 314c-2 7-1 13 2 18 2 6 6 11 11 14 5 4 11 6 18 6l32 0c0 26 9 49 28 68 19 19 42 28 68 28l64 0c8 0 14-2 20-7 5-4 9-9 10-16 1-6 1-12 0-18-1-7-5-12-10-16-6-5-12-7-20-7l-64 0c-9 0-16-3-23-9-6-7-9-14-9-23l32 0c7 0 13-2 19-6 5-4 9-9 11-14 2-6 2-11 1-18-1-6-4-12-8-17l-64-64c-7-6-15-9-23-9-9 0-16 3-22 9l-64 64c-5 5-8 11-9 17z m63-282l64 0 0 64-64 0z m194-10c-1 7-1 13 0 19 1 7 5 12 10 16 6 5 12 7 20 7l64 0c9 0 16 3 23 9 6 7 9 14 9 23l-32 0c-7 0-13 2-18 6-6 4-10 8-12 14-2 5-2 11-1 18 1 6 4 12 9 16l64 64c6 7 14 10 22 10 9 0 16-3 23-9l64-64c5-5 8-11 9-18 1-6 0-12-2-18-3-5-7-10-12-13-5-4-11-6-18-6l-32 0c0-27-9-49-28-68-19-19-41-28-68-28l-64 0c-8 0-14 2-20 6-5 5-9 10-10 16z m62 298l0 128c0 9 3 16 9 23 7 6 14 9 23 9l128 0c9 0 16-3 23-9 6-7 9-14 9-23l0-128c0-9-3-16-9-23-7-6-14-9-23-9l-128 0c-9 0-16 3-23 9-6 7-9 14-9 23z m64 32l64 0 0 64-64 0z"/>
<glyph unicode="&#57502;" d="M0 128l0 128c0 9 3 16 9 23 7 6 14 9 23 9l128 0c9 0 16-3 23-9 6-7 9-14 9-23l0-128c0-9-3-16-9-23-7-6-14-9-23-9l-128 0c-9 0-16 3-23 9-6 7-9 14-9 23z m64 32l64 0 0 64-64 0z m32-96l128 0 0 128 32 0c9 0 16-3 23-9 6-7 9-14 9-23l0-128c0-9-3-16-9-23-7-6-14-9-23-9l-128 0c-9 0-16 3-23 9-6 7-9 14-9 23z m64 352c0 9 3 17 10 23l64 64c5 5 10 8 17 9 6 1 12 0 18-2 5-3 10-7 13-12 4-5 6-11 6-18l0-32 64 0c27 0 49-9 68-28 19-19 28-42 28-68l0-64 32 0c7 0 13-2 19-6 5-4 9-9 11-14 2-6 2-11 1-18-1-6-4-12-8-17l-64-64c-7-6-14-9-23-9-9 0-17 3-23 9l-64 64c-5 5-8 11-9 18-1 6 0 12 2 17 3 6 7 11 12 14 5 4 11 6 18 6l32 0 0 64c0 9-3 16-9 23-7 6-14 9-23 9l-64 0 0-32c0-7-2-13-6-19-4-5-8-9-14-11-5-2-11-2-18-1-6 1-12 4-16 8l-64 64c-7 7-10 15-10 23z"/>
<glyph unicode="&#57503;" d="M0 64l0 128c0 9 3 17 9 23 7 6 14 9 23 9l128 0c9 0 16-3 23-9 6-6 9-14 9-23l0-128c0-9-3-16-9-22-7-7-14-10-23-10l-128 0c-9 0-16 3-23 10-6 6-9 13-9 22z m0 320c0 9 3 17 10 23l64 64c5 5 10 8 17 9 6 1 12 0 18-2 5-3 10-7 13-12 4-5 6-11 6-18l0-32 32 0 0-64-32 0 0-32c0-7-2-13-6-19-4-5-8-9-14-11-5-2-11-2-18-1-6 1-12 4-16 8l-64 64c-7 7-10 15-10 23z m64-288l64 0 0 64-64 0z m128 256l0 64 32 0 0-64z m32-256l0 64 32 0 0-64z m32 256l0 64 32 0 0-64z m32-256l0 64 32 0 0-64z m32 224l0 128c0 9 3 17 9 23 7 6 14 9 23 9l128 0c9 0 16-3 23-9 6-6 9-14 9-23l0-128c0-9-3-16-9-22-7-7-14-10-23-10l-128 0c-9 0-16 3-23 10-6 6-9 13-9 22z m32-224l0 64 32 0 0 32c0 7 2 13 6 19 4 5 9 9 14 11 6 2 11 3 18 2 6-1 12-4 17-9l64-64c6-7 9-14 9-23 0-9-3-16-9-22l-64-64c-5-5-11-8-17-9-7-1-13-1-18 2-6 2-11 6-14 11-4 6-6 12-6 18l0 32z m32 256l64 0 0 64-64 0z"/>
<glyph unicode="&#57504;" d="M0 96c0-27 9-49 28-68 19-19 42-28 68-28l320 0c27 0 49 9 68 28 19 19 28 41 28 68l0 96-128 128-256 0-128-128z m64 64l91 96 203 0 90-96-96 0 0-32c0-9-3-16-9-23-7-6-14-9-23-9l-128 0c-9 0-16 3-23 9-6 7-9 14-9 23l0 32z"/>
<glyph unicode="&#57505;" d="M0 96c0-27 9-49 28-68 19-19 42-28 68-28l320 0c27 0 49 9 68 28 19 19 28 41 28 68l0 96-110 110c-4-6-9-12-14-18l-29-29 89-95-96 0 0-32c0-9-3-16-9-23-7-6-14-9-23-9l-128 0c-9 0-16 3-23 9-6 7-9 14-9 23l0 32-96 0 90 95-30 29c-5 5-9 11-14 18l-110-110z m161 250c1-6 4-12 9-17l64-64c6-6 14-9 23-9 8 0 16 3 22 9l64 64c5 5 8 11 9 18 1 6 0 12-2 17-3 6-7 11-12 14-5 4-11 6-18 6l-32 0 0 96c0 8-2 14-7 20-4 5-9 9-16 10-6 1-12 1-18 0-7-1-12-5-16-10-5-6-7-12-7-20l0-96-32 0c-7 0-13-2-18-6-6-4-10-9-12-14-2-6-2-11-1-18z"/>
<glyph unicode="&#57506;" d="M0 96c0-27 9-49 28-68 19-19 42-28 68-28l320 0c27 0 49 9 68 28 19 19 28 41 28 68l0 96-128 128-32 0 0-64 6 0 90-96-96 0 0-32c0-9-3-16-9-23-7-6-14-9-23-9l-128 0c-9 0-16 3-23 9-6 7-9 14-9 23l0 32-96 0 91 96 5 0 0 64-32 0-128-128z m161 325c-1-6-1-12 2-18 2-5 6-10 11-13 5-4 11-6 18-6l32 0 0-96c0-8 2-14 7-20 4-5 9-9 16-10 6-1 12-1 18 0 7 1 12 5 16 10 5 6 7 12 7 20l0 96 32 0c7 0 13 2 19 6 5 4 9 8 11 14 2 5 2 11 1 18-1 6-4 12-8 17l-64 64c-7 6-15 9-23 9-9 0-16-3-22-9l-64-64c-5-5-8-11-9-18z"/>
<glyph unicode="&#57507;" d="M0 352c0-22 4-42 13-62 8-20 20-37 34-51 14-14 31-26 51-34 20-9 40-13 62-13 22 0 43 4 64 13l0-45 64 0 0-32 64 0 0-64 64 0 0-64 96 0 0 128-160 128 0 32-45 0c9 21 13 42 13 64 0 22-4 42-13 62-8 20-19 37-34 51-14 15-31 26-51 34-20 9-40 13-62 13-29 0-56-7-80-21-25-15-44-34-58-59-15-24-22-51-22-80z m64 32c0 18 6 33 19 45 12 13 27 19 45 19 18 0 33-6 45-19 13-12 19-27 19-45 0-18-6-33-19-45-12-13-27-19-45-19-18 0-33 6-45 19-13 12-19 27-19 45z"/>
<glyph unicode="&#57508;" d="M64 32c0-9 3-16 9-23 7-6 14-9 23-9l320 0c9 0 16 3 23 9 6 7 9 14 9 23l0 224c0 9-3 16-9 23-7 6-14 9-23 9l0 64c0 22-4 42-13 62-8 20-19 37-34 51-14 15-31 26-51 34-20 9-40 13-62 13-29 0-56-7-80-21-25-15-44-34-58-59-15-24-22-51-22-80l0-64c-9 0-16-3-23-9-6-7-9-14-9-23z m64 32l0 160 256 0 0-160z m32 224l0 64c0 26 9 49 28 68 19 19 42 28 68 28 27 0 49-9 68-28 19-19 28-42 28-68l0-64z"/>
<glyph unicode="&#57509;" d="M64 32l0 224c0 9 3 16 9 23 7 6 14 9 23 9l0 64c0 29 7 56 22 80 14 25 33 44 58 59 24 14 51 21 80 21 39 0 72-12 102-36 29-25 47-55 55-92l-67 0c-6 19-18 34-34 46-17 12-35 18-56 18-26 0-49-9-68-28-19-19-28-42-28-68l0-64 256 0c9 0 16-3 23-9 6-7 9-14 9-23l0-224c0-9-3-16-9-23-7-6-14-9-23-9l-320 0c-9 0-16 3-23 9-6 7-9 14-9 23z m64 32l256 0 0 160-256 0z"/>
</font>
</defs>
</svg>
